<?xml version="1.0" encoding="utf-8"?>
<!-- Generator: Adobe Illustrator 27.1.1, SVG Export Plug-In . SVG Version: 6.00 Build 0)  -->
<svg version="1.1" id="Layer_1" xmlns="http://www.w3.org/2000/svg" xmlns:xlink="http://www.w3.org/1999/xlink" x="0px" y="0px"
	 viewBox="0 0 149 28" style="enable-background:new 0 0 149 28;" xml:space="preserve">
<style type="text/css">
	.st0{fill:#FFFFFF;}
	.st1{fill:#186560;}
	.st2{fill:#FFDB1E;}
</style>
<g>
	<path class="st0" d="M46.5,15.5c0-1,0.2-2,0.5-2.9s0.8-1.7,1.5-2.3c0.6-0.7,1.3-1.2,2.2-1.6c0.8-0.4,1.7-0.6,2.6-0.6
		c0.9,0,1.7,0.2,2.4,0.6c0.7,0.4,1.2,0.9,1.4,1.6l-0.4,0.2l0.6-2.1h3.5l-1.8,11.7c-0.4,2.4-1.1,4.2-2.3,5.4
		c-1.2,1.2-2.8,1.8-4.8,1.8c-1.2,0-2.4-0.2-3.3-0.7c-1-0.5-1.7-1.2-2.2-2c-0.5-0.9-0.8-1.9-0.8-3h3.7c0.1,0.7,0.3,1.3,0.8,1.7
		c0.5,0.4,1.1,0.6,1.9,0.6c0.9,0,1.6-0.3,2.1-0.8s0.9-1.2,1.1-2.2l0.4-2.7l0.3,0.3c-0.4,0.7-0.9,1.2-1.6,1.6
		c-0.7,0.4-1.6,0.6-2.5,0.6c-1,0-1.9-0.2-2.7-0.7c-0.8-0.5-1.4-1.1-1.9-1.9C46.7,17.5,46.5,16.5,46.5,15.5z M50.3,15.2
		c0,0.7,0.2,1.4,0.7,1.8c0.4,0.5,1,0.7,1.7,0.7c0.7,0,1.3-0.2,1.8-0.5s0.9-0.8,1.2-1.4c0.3-0.6,0.4-1.2,0.4-2c0-0.7-0.2-1.3-0.7-1.8
		c-0.4-0.4-1.1-0.7-1.8-0.7c-0.6,0-1.2,0.2-1.7,0.5c-0.5,0.3-0.9,0.8-1.2,1.3S50.3,14.5,50.3,15.2z"/>
	<path class="st0" d="M61.4,15.6c0-1,0.2-2,0.6-2.9c0.4-0.9,0.9-1.7,1.6-2.4s1.5-1.2,2.4-1.6c0.9-0.4,1.9-0.6,2.9-0.6
		c1.2,0,2.3,0.2,3.3,0.7c0.9,0.5,1.7,1.1,2.2,2s0.8,1.8,0.8,3c0,1-0.2,2-0.6,2.9c-0.4,0.9-0.9,1.7-1.6,2.4c-0.7,0.7-1.5,1.2-2.4,1.6
		c-0.9,0.4-1.9,0.6-2.9,0.6c-1.2,0-2.3-0.2-3.3-0.7c-0.9-0.5-1.7-1.1-2.2-2C61.7,17.7,61.4,16.7,61.4,15.6z M65.2,15.3
		c0,0.8,0.2,1.5,0.7,2c0.5,0.5,1.1,0.7,1.9,0.7c0.6,0,1.2-0.2,1.8-0.5c0.5-0.3,0.9-0.8,1.3-1.4c0.3-0.6,0.5-1.2,0.5-2
		c0-0.8-0.2-1.5-0.7-2c-0.5-0.5-1.1-0.7-1.9-0.7c-0.6,0-1.2,0.2-1.7,0.5c-0.5,0.3-1,0.8-1.3,1.4C65.4,13.9,65.2,14.6,65.2,15.3z"/>
	<path class="st0" d="M78.8,21L75,2.5h4l1.9,9.5c0.1,0.6,0.2,1.1,0.3,1.7c0.1,0.6,0.2,1.3,0.2,2.1c0.3-0.6,0.5-1.2,0.7-1.6
		s0.4-0.8,0.5-1.2s0.4-0.7,0.5-1.1l4.9-9.5h4.2L82.9,21H78.8z"/>
	<path class="st0" d="M92.3,21.3c-1.1,0-2.1-0.3-2.8-1s-1.1-1.5-1.1-2.5c0-1.3,0.4-2.3,1.3-3.1c0.9-0.8,2.2-1.2,3.8-1.3l3.5-0.3
		l0-0.2c0.1-0.6,0-1.1-0.4-1.4S95.8,11,95.2,11c-1.4,0-2.2,0.6-2.4,1.8h-3.2c0.2-1.5,0.9-2.6,1.9-3.4c1-0.8,2.4-1.2,4.1-1.2
		c1.8,0,3.2,0.5,4.1,1.5c0.9,1,1.2,2.3,1,4L99.5,21h-3.3l0-1.7c-0.3,0.6-0.8,1.1-1.5,1.4C94,21.1,93.2,21.3,92.3,21.3z M93.8,18.5
		c0.8,0,1.4-0.2,1.9-0.6c0.5-0.4,0.8-1,0.9-1.7l0.1-0.7l-2,0.2c-0.9,0.1-1.6,0.2-1.9,0.5c-0.4,0.3-0.6,0.6-0.6,1.1
		c0,0.4,0.1,0.6,0.4,0.8S93.3,18.5,93.8,18.5z"/>
	<path class="st0" d="M105.5,21h-3.7l3-18.8h3.7L105.5,21z"/>
	<path class="st0" d="M111.7,21.3c-1.1,0-2.1-0.3-2.8-1s-1.1-1.5-1.1-2.5c0-1.3,0.4-2.3,1.3-3.1c0.9-0.8,2.2-1.2,3.8-1.3l3.5-0.3
		l0-0.2c0.1-0.6,0-1.1-0.4-1.4s-0.9-0.5-1.6-0.5c-1.4,0-2.2,0.6-2.4,1.8H109c0.2-1.5,0.9-2.6,1.9-3.4c1-0.8,2.4-1.2,4.1-1.2
		c1.8,0,3.2,0.5,4.1,1.5c0.9,1,1.2,2.3,1,4l-1.2,7.3h-3.3l0-1.7c-0.3,0.6-0.8,1.1-1.5,1.4C113.4,21.1,112.6,21.3,111.7,21.3z
		 M113.2,18.5c0.8,0,1.4-0.2,1.9-0.6c0.5-0.4,0.8-1,0.9-1.7l0.1-0.7l-2,0.2c-0.9,0.1-1.6,0.2-1.9,0.5c-0.4,0.3-0.6,0.6-0.6,1.1
		c0,0.4,0.1,0.6,0.4,0.8S112.7,18.5,113.2,18.5z"/>
	<path class="st0" d="M120.8,17h3.5c0,0.5,0.2,0.8,0.5,1.1c0.3,0.3,0.7,0.4,1.3,0.4c0.5,0,1-0.1,1.3-0.3s0.5-0.5,0.5-0.8
		c0-0.3-0.1-0.5-0.2-0.6c-0.1-0.1-0.4-0.3-0.8-0.4l-2.2-0.7c-0.9-0.3-1.5-0.7-2-1.2s-0.7-1.2-0.7-2.1c0-1.3,0.5-2.3,1.4-3.1
		c0.9-0.7,2.2-1.1,3.9-1.1c0.9,0,1.7,0.2,2.4,0.5c0.7,0.4,1.2,0.8,1.6,1.5c0.4,0.6,0.6,1.3,0.6,2.2h-3.5c0-0.4-0.1-0.8-0.4-1
		c-0.3-0.3-0.6-0.4-1.1-0.4c-0.5,0-0.8,0.1-1.1,0.3c-0.2,0.2-0.4,0.4-0.4,0.8c0,0.5,0.4,0.9,1.2,1.2l2.1,0.7c0.9,0.3,1.6,0.7,2,1.2
		c0.4,0.5,0.7,1.1,0.7,1.9c0,0.9-0.2,1.7-0.7,2.3c-0.4,0.6-1.1,1.1-1.9,1.5s-1.9,0.5-3,0.5c-1.5,0-2.8-0.4-3.7-1.1
		S120.8,18.3,120.8,17z"/>
</g>
<path class="st1" d="M26,4.7c-2-1.6-4.6-2.5-7.4-2.5C12,2.1,6.6,7.6,6.6,14.2S12,26.3,18.6,26.3c6.7,0,12.1-5.4,12.1-12.1H18.6
	L26,4.7z"/>
<g>
	<path class="st2" d="M27.9,2.1c-1.6,0-3.2,0.3-4.6,0.9c1,0.4,1.9,1,2.8,1.6l-7.4,9.5h9.2h2.9c0,5-3.1,9.3-7.4,11.2
		c1.4,0.6,3,0.9,4.6,0.9c6.7,0,12.1-5.4,12.1-12.1S34.5,2.1,27.9,2.1z"/>
	<path class="st1" d="M30.7,14.2h-2.9h-9.2L26,4.7c-0.8-0.7-1.8-1.2-2.8-1.6c-1.4-0.6-3-0.9-4.6-0.9C12,2.1,6.6,7.6,6.6,14.2
		S12,26.3,18.6,26.3c1.6,0,3.2-0.3,4.6-0.9C27.6,23.6,30.7,19.3,30.7,14.2z"/>
</g>
</svg>
