<?xml version="1.0" encoding="utf-8"?>
<!-- Generator: Adobe Illustrator 27.1.1, SVG Export Plug-In . SVG Version: 6.00 Build 0)  -->
<svg version="1.1" id="Layer_1" xmlns="http://www.w3.org/2000/svg" xmlns:xlink="http://www.w3.org/1999/xlink" x="0px" y="0px"
	 viewBox="0 0 149 28" style="enable-background:new 0 0 149 28;" xml:space="preserve">
<style type="text/css">
	.st0{fill:#FFDB1E;}
	.st1{fill:#186560;}
</style>
<path class="st0" d="M3.2,6.4C-1.5,11.8-0.9,20,4.5,24.7c5.4,4.7,13.6,4.1,18.3-1.3s4.1-13.6-1.3-18.3C16.1,0.4,7.9,0.9,3.2,6.4z"/>
<path class="st1" d="M24.3,1.2c-0.4,0.1-0.5,0.6-0.2,0.9c7.1,6.2,7.8,16.9,1.7,24c-0.3,0.3-0.1,0.8,0.3,0.8c3.9,0.3,8-1.2,10.8-4.4
	c4.7-5.4,4.1-13.6-1.3-18.3C32.4,1.3,28.2,0.3,24.3,1.2z"/>
<g>
	<path d="M59.8,6.7c0.5,0.3,1,0.8,1.4,1.4V6.2h2.3v13.6c0,1.9-0.3,3.4-0.8,4.5c-1,2-3,3-5.9,3c-1.6,0-2.9-0.4-4-1.1
		c-1.1-0.7-1.7-1.8-1.8-3.4h2.6c0.1,0.7,0.4,1.2,0.7,1.5c0.6,0.6,1.5,0.8,2.7,0.8c1.9,0,3.2-0.7,3.8-2c0.4-0.8,0.5-2.2,0.5-4.3
		c-0.5,0.8-1.1,1.3-1.8,1.7c-0.7,0.4-1.6,0.6-2.8,0.6c-1.6,0-3-0.6-4.2-1.7c-1.2-1.1-1.8-3-1.8-5.7c0-2.5,0.6-4.5,1.8-5.9
		c1.2-1.4,2.7-2.1,4.4-2.1C57.9,5.8,58.9,6.1,59.8,6.7z M60.1,9.4C59.3,8.5,58.3,8,57.2,8c-1.8,0-3,0.8-3.6,2.5
		c-0.3,0.9-0.5,2-0.5,3.5c0,1.7,0.3,3,1,3.8c0.7,0.9,1.6,1.3,2.7,1.3c1.8,0,3.1-0.8,3.8-2.4c0.4-0.9,0.6-2,0.6-3.2
		C61.2,11.6,60.8,10.3,60.1,9.4z"/>
	<path d="M77.9,7.6c1.3,1.3,2,3.2,2,5.7c0,2.4-0.6,4.4-1.7,6c-1.2,1.6-3,2.4-5.4,2.4c-2,0-3.7-0.7-4.9-2.1c-1.2-1.4-1.8-3.3-1.8-5.6
		c0-2.5,0.6-4.5,1.9-6c1.3-1.5,3-2.2,5.1-2.2C74.9,5.7,76.5,6.3,77.9,7.6z M76.3,17.5c0.6-1.3,0.9-2.7,0.9-4.2
		c0-1.4-0.2-2.5-0.7-3.4c-0.7-1.4-1.9-2.1-3.6-2.1c-1.5,0-2.6,0.6-3.3,1.8s-1,2.6-1,4.2c0,1.6,0.3,2.9,1,4s1.8,1.6,3.3,1.6
		C74.6,19.4,75.7,18.8,76.3,17.5z"/>
	<path d="M84.6,0.5L90.5,18l5.8-17.4h3.1L91.9,21H89L81.5,0.5H84.6z"/>
	<path d="M107.3,12c0.6-0.1,1-0.3,1.2-0.7c0.1-0.2,0.2-0.5,0.2-1c0-0.9-0.3-1.5-0.9-1.9c-0.6-0.4-1.5-0.6-2.6-0.6
		c-1.3,0-2.2,0.4-2.8,1.1c-0.3,0.4-0.5,1-0.6,1.8h-2.3c0-1.8,0.6-3.1,1.8-3.9c1.1-0.7,2.5-1.1,4-1.1c1.8,0,3.2,0.3,4.3,1
		c1.1,0.7,1.6,1.7,1.6,3.1v8.6c0,0.3,0.1,0.5,0.2,0.6c0.1,0.2,0.3,0.2,0.7,0.2c0.1,0,0.2,0,0.4,0c0.1,0,0.3,0,0.4-0.1v1.9
		c-0.4,0.1-0.7,0.2-0.9,0.2c-0.2,0-0.5,0-0.8,0c-0.9,0-1.5-0.3-1.9-0.9c-0.2-0.3-0.3-0.8-0.4-1.4c-0.5,0.7-1.2,1.2-2.2,1.7
		c-1,0.5-2,0.7-3.2,0.7c-1.4,0-2.5-0.4-3.4-1.3s-1.3-1.9-1.3-3.2c0-1.4,0.4-2.5,1.3-3.2c0.9-0.8,2-1.2,3.4-1.4L107.3,12z M102,18.8
		c0.5,0.4,1.2,0.6,1.9,0.6c0.9,0,1.7-0.2,2.6-0.6c1.4-0.7,2.1-1.8,2.1-3.3v-2c-0.3,0.2-0.7,0.4-1.2,0.5c-0.5,0.1-1,0.2-1.4,0.3
		l-1.5,0.2c-0.9,0.1-1.6,0.3-2.1,0.6c-0.8,0.4-1.2,1.1-1.2,2.1C101.2,17.8,101.5,18.3,102,18.8z"/>
	<path d="M114.9,0.5h2.5V21h-2.5V0.5z"/>
	<path d="M128.9,12c0.6-0.1,1-0.3,1.2-0.7c0.1-0.2,0.2-0.5,0.2-1c0-0.9-0.3-1.5-0.9-1.9c-0.6-0.4-1.5-0.6-2.6-0.6
		c-1.3,0-2.2,0.4-2.8,1.1c-0.3,0.4-0.5,1-0.6,1.8H121c0-1.8,0.6-3.1,1.8-3.9c1.1-0.7,2.5-1.1,4-1.1c1.8,0,3.2,0.3,4.3,1
		c1.1,0.7,1.6,1.7,1.6,3.1v8.6c0,0.3,0.1,0.5,0.2,0.6c0.1,0.2,0.3,0.2,0.7,0.2c0.1,0,0.2,0,0.4,0c0.1,0,0.3,0,0.4-0.1v1.9
		c-0.4,0.1-0.7,0.2-0.9,0.2c-0.2,0-0.5,0-0.8,0c-0.9,0-1.5-0.3-1.9-0.9c-0.2-0.3-0.3-0.8-0.4-1.4c-0.5,0.7-1.2,1.2-2.2,1.7
		c-1,0.5-2,0.7-3.2,0.7c-1.4,0-2.5-0.4-3.4-1.3s-1.3-1.9-1.3-3.2c0-1.4,0.4-2.5,1.3-3.2c0.9-0.8,2-1.2,3.4-1.4L128.9,12z
		 M123.6,18.8c0.5,0.4,1.2,0.6,1.9,0.6c0.9,0,1.7-0.2,2.6-0.6c1.4-0.7,2.1-1.8,2.1-3.3v-2c-0.3,0.2-0.7,0.4-1.2,0.5
		c-0.5,0.1-1,0.2-1.4,0.3l-1.5,0.2c-0.9,0.1-1.6,0.3-2.1,0.6c-0.8,0.4-1.2,1.1-1.2,2.1C122.9,17.8,123.1,18.3,123.6,18.8z"/>
	<path d="M138,16.3c0.1,0.8,0.3,1.5,0.6,1.9c0.6,0.8,1.8,1.2,3.4,1.2c0.9,0,1.8-0.2,2.5-0.6c0.7-0.4,1.1-1,1.1-1.9
		c0-0.6-0.3-1.1-0.9-1.5c-0.4-0.2-1.1-0.4-2.2-0.7l-2-0.5c-1.3-0.3-2.2-0.7-2.9-1.1c-1.1-0.7-1.6-1.6-1.6-2.8c0-1.4,0.5-2.6,1.5-3.4
		s2.4-1.3,4.2-1.3c2.3,0,3.9,0.7,4.9,2c0.6,0.8,0.9,1.7,0.9,2.7h-2.4c0-0.6-0.3-1.1-0.6-1.5c-0.6-0.7-1.6-1-3.1-1
		c-1,0-1.7,0.2-2.2,0.5c-0.5,0.4-0.7,0.8-0.7,1.4c0,0.6,0.3,1.2,1,1.6c0.4,0.2,0.9,0.4,1.7,0.6l1.7,0.4c1.8,0.4,3.1,0.9,3.7,1.3
		c1,0.6,1.5,1.6,1.5,3c0,1.3-0.5,2.5-1.5,3.4c-1,1-2.6,1.4-4.7,1.4c-2.2,0-3.8-0.5-4.8-1.5c-0.9-1-1.4-2.3-1.5-3.7H138z"/>
</g>
</svg>
