<svg width="139" height="86" viewBox="0 0 139 86" fill="none" xmlns="http://www.w3.org/2000/svg">
<path d="M0.00725235 15.9808C0.210314 15.2499 0.391618 14.5154 0.616436 13.7917C2.29894 8.34966 7.31383 4.42009 13.0358 4.3224C19.9109 4.20299 26.786 4.27536 33.661 4.2645C34.1904 4.2645 34.7198 4.2645 35.3109 4.2645C35.3544 3.61319 35.3725 3.12471 35.4197 2.63623C35.5285 1.51453 36.0543 0.682301 37.1312 0.240858C38.219 -0.207822 39.1872 0.0490808 40.0139 0.808942C41.7472 2.39741 43.4043 4.06549 45.1884 5.59245C45.7395 6.06284 46.5917 6.4283 47.306 6.4283C59.9248 6.47895 72.5473 6.46448 85.1661 6.46448C85.6628 6.46448 86.1632 6.44277 86.6564 6.48981C87.8965 6.61283 88.8574 7.53552 89.0278 8.72959C89.2128 10.0105 88.5565 11.2263 87.3345 11.6352C86.7507 11.8305 86.0943 11.8704 85.4707 11.8704C74.8861 11.8848 64.3015 11.8812 53.7169 11.8812C53.2274 11.8812 52.7379 11.8812 52.0453 11.8812C54.4132 15.1739 51.3963 16.415 49.605 18.4848C50.3628 18.4848 50.8668 18.4848 51.3672 18.4848C71.0424 18.4848 90.7212 18.4848 110.396 18.4848C113.569 18.4848 114.323 19.2338 114.327 22.3854C114.327 34.7096 114.327 47.0302 114.327 59.3544C114.327 59.8863 114.327 60.4183 114.327 61.037C116.427 61.037 118.406 61.1528 120.361 60.9972C121.601 60.8995 122.323 59.9587 122.457 58.685C122.504 58.2364 122.497 57.7841 122.497 57.3318C122.497 43.0247 122.497 28.7139 122.497 14.4068C122.497 12.0151 122.363 11.8848 119.955 11.8848C116.923 11.8848 113.892 11.9065 110.864 11.8704C109.428 11.8523 108.33 10.9802 108.09 9.73188C107.855 8.49801 108.275 7.45954 109.381 6.85888C109.903 6.57665 110.589 6.49343 111.201 6.48619C114.367 6.45001 117.533 6.46087 120.702 6.47172C125.129 6.48619 127.921 9.21084 127.936 13.6325C127.965 22.1647 127.972 30.6932 127.914 39.2254C127.907 40.4628 128.226 40.9694 129.466 41.353C135.094 43.097 138.894 48.2822 138.959 54.1765C139.01 58.5548 139.017 62.933 138.959 67.3113C138.865 74.7036 133.154 80.5799 125.749 80.7319C118.968 80.8694 112.18 80.7753 105.396 80.7825C104.859 80.7825 104.326 80.7825 103.659 80.7825C103.623 81.3759 103.608 81.8536 103.565 82.3348C103.463 83.5108 102.934 84.3792 101.788 84.8243C100.686 85.2512 99.7357 84.9509 98.9126 84.1983C97.3787 82.7943 95.8376 81.3977 94.3727 79.925C93.6475 79.1941 92.8933 78.9191 91.8635 78.9191C67.5723 78.9444 43.2811 78.9408 18.9899 78.9299C17.9999 78.9299 16.9774 78.9191 16.031 78.6802C12.9452 77.9023 11.0451 75.2753 11.0342 71.8017C11.0124 63.1791 11.027 54.5601 11.027 45.9375C11.027 45.6227 11.1212 45.2644 11.0052 45.0003C10.8348 44.6168 10.5773 44.0885 10.2437 43.9872C4.67041 42.2684 1.3199 38.5777 0.181306 32.8751C0.155923 32.7484 0.0616436 32.6327 0 32.5133C0 27.0061 0 21.4989 0 15.9917L0.00725235 15.9808ZM69.6536 23.9775C59.4752 23.8508 50.8959 32.1152 50.7508 42.1888C50.5949 52.7798 58.8479 61.3265 69.3273 61.4314C79.5492 61.5327 88.1141 53.2104 88.2374 43.0572C88.3643 32.5494 80.1403 24.1041 69.6573 23.9775H69.6536ZM24.6538 23.9015C23.0438 23.9015 21.6079 23.9015 20.172 23.9015C17.3146 23.9087 16.4806 24.7446 16.4806 27.632C16.4806 42.1201 16.4806 56.6081 16.4806 71.0961C16.4806 73.3178 16.6546 73.4879 18.8811 73.4879C41.1344 73.4879 63.3877 73.4879 85.6411 73.4879C86.1125 73.4879 86.5802 73.4481 87.2728 73.4155C84.4662 70.3435 87.1894 68.8455 89.0931 66.8915C88.2917 66.8915 87.8131 66.8915 87.3345 66.8915C67.7064 66.8915 48.0747 66.8915 28.4467 66.8915C25.4515 66.8915 24.6574 66.1064 24.6574 63.1393C24.6574 50.6812 24.6574 38.2267 24.6574 25.7686V23.9051L24.6538 23.9015ZM30.1764 23.9739V61.3735H54.0868C48.3938 56.286 45.3298 50.1818 45.3189 42.7135C45.308 35.2162 48.412 29.0975 54.1775 23.9051C51.9474 23.9051 50.0836 24.0969 48.2706 23.8617C45.0361 23.442 42.4507 24.3429 40.4745 26.9409C40.4201 27.0133 40.3439 27.064 40.2786 27.1255C39.3685 28.012 38.3387 28.4426 37.0804 27.907C35.8947 27.4041 35.4378 26.4344 35.3907 25.215C35.3762 24.8206 35.3399 24.4262 35.3109 23.9775H30.1727L30.1764 23.9739ZM108.797 61.0659V24.0318H84.9122C90.6415 29.1482 93.6765 35.2741 93.662 42.7569C93.6475 50.2144 90.5581 56.3078 84.8107 61.4567C88.27 61.4567 91.3739 61.4748 94.4779 61.4314C94.826 61.4278 95.2176 61.1455 95.5004 60.8923C96.6463 59.8683 97.745 58.7972 98.8763 57.7551C99.743 56.9627 100.722 56.6443 101.868 57.1219C102.999 57.5923 103.496 58.4933 103.576 59.662C103.605 60.1034 103.616 60.5485 103.637 61.0623H108.794L108.797 61.0659ZM98.2236 65.806C96.581 67.3547 94.6882 69.1386 92.7482 70.9695C94.7752 72.8655 96.6789 74.6494 98.2345 76.104C99.6523 75.8 100.711 75.3803 101.774 75.373C109.642 75.3151 117.514 75.373 125.387 75.326C129.807 75.3007 133.379 71.9826 133.498 67.6767C133.625 63.0778 133.6 58.4679 133.506 53.8653C133.437 50.5328 130.967 47.421 128.012 46.7082C127.99 47.1605 127.954 47.5983 127.95 48.0361C127.947 51.242 127.958 54.4443 127.947 57.6502C127.929 63.2478 124.6 66.5659 118.99 66.5731C113.29 66.584 107.59 66.6129 101.893 66.5442C100.787 66.5297 99.6849 66.11 98.2272 65.8024L98.2236 65.806ZM40.7609 8.94308C39.3141 9.25064 38.2553 9.66314 37.1892 9.67037C29.4185 9.72465 21.6442 9.68122 13.8698 9.70655C8.88756 9.72465 5.4609 13.1766 5.43914 18.1519C5.42101 22.2551 5.42101 26.3584 5.45002 30.4616C5.45727 31.2649 5.54792 32.0863 5.74373 32.8679C6.41819 35.5599 8.83679 38.0277 11.0306 38.2665C11.0306 34.6553 11.0233 31.0514 11.0306 27.4475C11.0451 21.7703 14.3521 18.4739 20.0487 18.4667C25.651 18.4594 31.2569 18.4269 36.8592 18.4956C38.0522 18.5101 39.2416 18.9045 40.7972 19.194C42.36 17.7249 44.2782 15.9193 46.2327 14.0848C44.2166 12.196 42.3419 10.4375 40.7537 8.9467L40.7609 8.94308Z" fill="#0C3A30"/>
<path d="M98.5754 6.47897C100.058 6.48982 101.226 7.63685 101.251 9.10953C101.277 10.6075 100.019 11.8776 98.5319 11.8667C97.0597 11.8523 95.7942 10.5352 95.8449 9.06612C95.8957 7.60791 97.0995 6.47173 98.5754 6.48259V6.47897Z" fill="#0C3A30"/>
<path d="M71.358 29.6113C73.0513 30.0491 74.6214 30.3205 76.0864 30.8705C77.5405 31.4169 77.9466 32.5241 77.5368 33.9353C77.0219 35.7047 75.858 36.2149 74.1754 35.4622C73.3233 35.0823 72.4313 34.7928 71.3362 34.3767C71.3362 36.2113 71.3072 37.7744 71.3652 39.3339C71.3725 39.5691 71.746 39.8658 72.0179 40.0069C72.8918 40.4629 73.8346 40.7994 74.6903 41.2878C77.4643 42.8691 78.6138 45.297 78.2729 48.4378C77.9538 51.3831 76.3692 53.3914 73.646 54.5094C72.9534 54.7953 72.221 54.9726 71.4232 55.2259C71.3362 56.1196 71.2854 57.1291 69.9547 57.1364C68.7726 57.1436 68.5224 56.3621 68.5514 55.4755C67.2278 55.1607 65.9442 55.0124 64.7984 54.5384C63.6888 54.0825 62.6118 53.4131 61.7198 52.617C60.5885 51.6039 60.5703 50.2289 61.3935 48.9588C62.2383 47.649 63.279 47.4102 64.6171 48.2134C65.8209 48.9371 67.0284 49.6572 68.5695 50.5799C68.5695 48.3871 68.5949 46.5996 68.5369 44.8158C68.5296 44.5951 68.0836 44.3345 67.7899 44.1898C66.8036 43.6941 65.7484 43.3141 64.7984 42.7569C60.2259 40.0576 60.3383 33.682 64.9978 31.1238C65.6142 30.7837 66.2959 30.5376 66.974 30.3314C67.8116 30.0745 68.7726 30.0889 68.7363 28.7646C68.729 28.5258 69.5921 28.0445 70.0272 28.0699C70.4659 28.0952 70.9192 28.5765 71.2782 28.9419C71.4269 29.0939 71.3471 29.4666 71.358 29.6113ZM71.0026 50.0733C72.453 49.8128 73.1275 49.1108 73.1021 47.9457C73.0767 46.8204 72.221 45.9302 71.0026 45.7457V50.0733ZM68.9249 34.8218C67.6086 34.9557 66.7637 35.6106 66.6839 36.5297C66.6005 37.5066 67.4889 38.3678 68.9249 38.6826V34.8218Z" fill="#FFDB1E"/>
</svg>
