<svg width="87" height="114" viewBox="0 0 87 114" fill="none" xmlns="http://www.w3.org/2000/svg">
<path d="M73.477 0.0228321C74.7132 0.651305 75.1163 1.65923 75.0659 3.02586C74.9829 5.27888 75.0422 7.53486 75.0422 9.93017C75.475 9.94796 75.8634 9.98057 76.2517 9.98057C78.7686 9.9865 81.2825 9.97761 83.7993 9.98353C85.7055 9.98946 86.4674 10.7602 86.5 12.6872C86.5 12.8354 86.5 12.9836 86.5 13.1318C86.5 45.5723 86.5 78.0128 86.497 110.453C86.497 110.931 86.4911 111.42 86.3992 111.885C86.2006 112.917 85.5069 113.471 84.499 113.628C84.1373 113.685 83.7608 113.655 83.3902 113.655C60.6377 113.655 37.8852 113.655 15.1327 113.655C12.607 113.655 11.9756 113.029 11.9756 110.524C11.9756 108.307 11.9756 106.09 11.9756 103.694C11.5279 103.694 11.1396 103.694 10.7512 103.694C8.16026 103.694 5.57225 103.706 2.98128 103.688C1.42196 103.676 0.609687 102.87 0.523717 101.305C0.508894 101.047 0.517789 100.786 0.517789 100.528C0.517789 68.0876 0.523716 35.6472 0.5 3.2067C0.5 1.846 0.805344 0.755062 2.00004 0.0198669H73.4799L73.477 0.0228321ZM16.4164 14.4688C16.4164 15.035 16.4164 15.4767 16.4164 15.9155C16.4164 28.8614 16.4164 41.8074 16.4164 54.7533C16.4164 55.0498 16.4223 55.3462 16.4164 55.6397C16.3719 57.0775 15.4915 58.0647 14.2345 58.0943C12.939 58.124 12.0111 57.1072 11.9815 55.616C11.9785 55.4322 11.9815 55.2454 11.9815 55.0617C11.9815 41.0426 11.9815 27.0235 11.9815 13.0073C11.9815 10.6268 12.6248 9.98353 15.0023 9.98057C33.0561 9.98057 51.1099 9.98057 69.1636 9.98057C69.6291 9.98057 70.0915 9.98057 70.5392 9.98057V4.53776H5.04754V99.1941H11.9726V97.9401C11.9726 92.6129 11.9726 87.2887 11.9726 81.9615C11.9726 79.6314 11.9518 77.3013 11.9874 74.9712C12.0082 73.6668 12.9153 72.7923 14.1426 72.7745C15.3729 72.7567 16.2859 73.6016 16.3986 74.8912C16.4312 75.2588 16.4104 75.6293 16.4104 75.9999C16.4104 86.6157 16.4104 97.2316 16.4104 107.847C16.4104 108.277 16.4104 108.707 16.4104 109.146H81.9702V14.4688H16.4104H16.4164Z" fill="#0C3A30"/>
<path d="M49.7817 21.0529C57.4034 21.0529 65.0222 21.0529 72.6439 21.0529C74.8169 21.0529 75.5165 21.7377 75.5165 23.884C75.5194 33.907 75.5194 43.9299 75.5165 53.9559C75.5165 56.0132 74.7694 56.7632 72.6972 56.7662C57.4182 56.7721 42.1392 56.7721 26.8632 56.7662C24.8295 56.7662 24.0173 55.9628 24.0173 53.9559C24.0113 43.9329 24.0113 33.91 24.0173 23.884C24.0173 21.7703 24.7584 21.0529 26.9225 21.0529C34.5442 21.0529 42.1629 21.0529 49.7847 21.0529H49.7817ZM71.0045 52.2513V25.5945H28.5085V52.2513H71.0045Z" fill="#0C3A30"/>
<path d="M49.9537 63.2674C57.2761 63.2674 64.6013 63.2674 71.9236 63.2674C72.2942 63.2674 72.6647 63.2496 73.0323 63.2881C74.1411 63.4037 74.9563 64.2457 75.0304 65.3188C75.1105 66.4453 74.3753 67.4236 73.2458 67.6519C72.9227 67.7171 72.5847 67.7052 72.2527 67.7052C57.3472 67.7052 42.4417 67.7052 27.5362 67.7141C26.5995 67.7141 25.639 67.6044 25.2388 66.7151C24.9542 66.0807 24.8148 65.1083 25.1113 64.5599C25.4314 63.967 26.2941 63.4482 26.9937 63.3296C28.1795 63.131 29.4246 63.2703 30.646 63.2703C37.0819 63.2703 43.5178 63.2703 49.9508 63.2703L49.9537 63.2674Z" fill="#0C3A30"/>
<path d="M30.5867 94.7948C30.5867 92.3283 30.6193 90.1583 30.5482 87.9912C30.5393 87.6948 30.059 87.3242 29.7151 87.1434C27.9779 86.2155 26.6024 85.0505 26.3445 82.9308C26.0332 80.3843 27.3732 77.9357 29.7507 76.9248C30.2665 76.7054 30.6134 76.5453 30.6134 75.8635C30.6134 74.5917 31.2418 73.9277 32.2438 73.9336C33.2399 73.9395 33.8239 74.6125 33.9188 75.8724C33.9336 76.0532 33.9455 76.237 33.9544 76.3586C34.8852 76.821 35.7923 77.2123 36.6432 77.7074C37.4851 78.1965 37.7993 78.9436 37.3279 79.8715C36.9011 80.7104 36.0265 80.9595 35.0423 80.5504C34.7162 80.414 34.402 80.2509 33.9217 80.0256C33.9217 81.7391 33.8921 83.2807 33.9514 84.8192C33.9603 85.0712 34.3131 85.4299 34.5858 85.5337C37.2627 86.5475 38.9584 88.341 38.9199 91.3085C38.8784 94.3353 37.3517 96.4904 34.5295 97.611C33.8269 97.8897 33.9484 98.3373 33.9158 98.8324C33.821 100.282 32.6144 101.186 31.5442 100.487C31.061 100.172 30.7646 99.3956 30.6312 98.7761C30.5126 98.2306 30.3999 98.029 29.8218 97.8541C28.7042 97.5191 27.6133 97.0448 26.5846 96.4934C25.7219 96.028 25.5293 95.0704 25.965 94.2938C26.4275 93.4667 27.3346 93.2147 28.2596 93.6653C28.9681 94.0092 29.6736 94.356 30.5867 94.8007V94.7948ZM33.981 94.0596C35.1994 93.3599 35.7538 92.2394 35.5641 90.9172C35.4307 89.9804 34.9445 89.3371 33.981 88.9843V94.0596ZM30.4948 83.5979V80.4199C29.3475 81.6354 29.3564 82.8093 30.4948 83.5979Z" fill="#0C3A30"/>
<path d="M60.3916 89.5061C56.3629 89.5061 52.3371 89.512 48.3084 89.5061C46.6423 89.5061 45.6759 88.7116 45.6492 87.3598C45.6196 85.9606 46.6216 85.0771 48.3143 85.0742C56.3332 85.0653 64.3492 85.0623 72.3682 85.0742C74.4433 85.0771 75.6351 86.7017 74.7872 88.3203C74.2981 89.2541 73.4739 89.518 72.4719 89.512C68.4462 89.4942 64.4174 89.5061 60.3887 89.5061H60.3916Z" fill="#0C3A30"/>
<path d="M60.2613 78.6057C56.2326 78.6057 52.2068 78.5938 48.178 78.6145C47.0664 78.6205 46.2067 78.2351 45.7857 77.1857C45.2165 75.7657 46.1978 74.2893 47.7808 74.1886C48.7739 74.1233 49.7759 74.1708 50.772 74.1708C57.7919 74.1708 64.8148 74.1708 71.8347 74.1708C72.1312 74.1708 72.4276 74.1619 72.7211 74.1737C74.0848 74.239 75.0156 75.1253 75.0334 76.3645C75.0512 77.6659 74.1174 78.5938 72.6766 78.5997C68.5382 78.6205 64.3998 78.6057 60.2613 78.6086V78.6057Z" fill="#0C3A30"/>
<path d="M60.2939 100.439C56.452 100.439 52.61 100.439 48.768 100.436C48.2907 100.436 47.8016 100.436 47.3332 100.347C46.3549 100.161 45.679 99.2978 45.6493 98.2869C45.6197 97.2672 46.2363 96.366 47.2027 96.1288C47.6622 96.0161 48.1543 96.0043 48.6316 96.0043C56.4253 95.9983 64.2219 95.9983 72.0156 96.0043C72.4573 96.0043 72.9079 96.0102 73.3377 96.0991C74.3694 96.3126 75.0512 97.2168 75.0334 98.2632C75.0156 99.3067 74.2953 100.181 73.2547 100.359C72.8219 100.433 72.3713 100.433 71.9296 100.433C68.052 100.439 64.1715 100.436 60.2939 100.436V100.439Z" fill="#0C3A30"/>
<path d="M16.3986 65.4285C16.4253 66.6024 15.4381 67.6519 14.2671 67.6963C13.0932 67.7408 12.0378 66.7655 11.9845 65.5945C11.9311 64.3435 12.9183 63.2911 14.1545 63.2822C15.3433 63.2733 16.3719 64.2575 16.3957 65.4315L16.3986 65.4285Z" fill="#0C3A30"/>
<path d="M51.9459 43.4912H57.2553C57.2553 43.0495 57.2553 42.6552 57.2553 42.2609C57.2553 38.5998 57.2553 34.9416 57.2553 31.2805C57.2553 29.4158 58.0083 28.4405 59.4372 28.4256C60.9017 28.4108 61.6902 29.4276 61.6932 31.3457C61.6932 34.9683 61.6932 38.5909 61.6932 42.2165V43.4467C62.1556 43.5268 62.5558 43.5564 62.9323 43.6661C63.9521 43.9655 64.6162 44.926 64.5332 45.9251C64.4442 46.9952 63.6171 47.8431 62.5262 47.9646C62.3068 47.9883 62.0815 47.9824 61.8622 47.9824C53.5794 47.9824 45.2966 47.9824 37.0108 47.9824C36.7885 47.9824 36.5661 47.9883 36.3467 47.9646C35.1876 47.849 34.3576 46.9834 34.3161 45.8539C34.2746 44.7274 35.0364 43.7758 36.1807 43.589C36.6491 43.512 37.1323 43.5327 37.7578 43.5031C37.7578 41.6147 37.7578 39.7411 37.7578 37.8705C37.7578 36.8152 38.1699 35.9851 39.1808 35.579C40.6423 34.989 42.1453 36.0148 42.1838 37.6571C42.2283 39.5721 42.1927 41.4872 42.1927 43.4734H47.5051V41.2145C47.5051 39.587 47.5051 37.9595 47.5051 36.3349C47.5051 34.4287 48.2877 33.3645 49.6988 33.3467C51.1218 33.3289 51.943 34.3961 51.943 36.2816C51.943 38.6443 51.943 41.0099 51.943 43.4971L51.9459 43.4912Z" fill="#FFDB1E"/>
</svg>
