<svg width="97" height="112" viewBox="0 0 97 112" fill="none" xmlns="http://www.w3.org/2000/svg">
<path d="M23.3182 111.017C21.2591 110.519 19.1478 110.171 17.1466 109.497C6.43953 105.879 -0.774756 94.8623 0.125943 83.6485C1.06719 71.9278 9.65713 62.2837 20.9579 60.2679C35.3082 57.7078 48.6334 67.0217 51.0719 81.3229C53.4902 95.5024 43.1944 109.143 28.8151 110.823C28.5718 110.852 28.3372 110.953 28.0997 111.02H23.3211L23.3182 111.017ZM25.7857 64.1633C14.0274 64.1488 4.46146 73.6133 4.42092 85.2993C4.38037 97.0605 13.9202 106.655 25.6728 106.679C37.4543 106.702 47.0202 97.1705 47.0202 85.4122C47.0202 73.6771 37.5296 64.1777 25.7857 64.1633Z" fill="#0C3A30"/>
<path d="M64.3709 111.017C63.1864 110.386 62.8186 109.407 62.8244 108.074C62.8708 99.2615 62.8476 90.4486 62.8476 81.6356V80.2165C61.5878 80.2165 60.409 80.2049 59.2274 80.2194C58.2514 80.231 57.4376 79.9414 56.9655 79.032C56.5224 78.1718 56.7136 77.3725 57.2175 76.5847C61.2576 70.2943 65.2746 63.9923 69.3205 57.7077C70.3978 56.0366 72.1876 56.028 73.2621 57.6961C77.3283 64.0126 81.38 70.3349 85.4114 76.6745C86.5264 78.4267 85.5591 80.1673 83.4855 80.2136C82.2952 80.2397 81.1077 80.2194 79.761 80.2194C79.761 80.955 79.761 81.6269 79.761 82.2959C79.761 84.1755 79.79 86.0522 79.7466 87.9289C79.7147 89.3046 78.7329 90.2429 77.4963 90.1995C76.2857 90.1561 75.4342 89.2409 75.4255 87.8826C75.4052 84.6679 75.4052 81.4532 75.4255 78.2384C75.4342 76.7093 76.2509 75.9186 77.7801 75.8868C78.3506 75.8752 78.9212 75.8868 79.7552 75.8868C76.8968 71.418 74.1541 67.1289 71.2985 62.6659C68.4545 67.1057 65.709 71.3949 62.8302 75.8868C64.982 75.8868 66.9167 75.8694 68.8484 75.8926C70.1227 75.9071 70.9857 76.66 71.1074 77.7809C71.2435 79.0552 70.3775 80.0891 69.0395 80.1991C68.4719 80.2455 67.8956 80.2078 67.2555 80.2078V106.684C69.4363 106.684 71.5968 106.684 73.7573 106.684C74.9158 106.684 76.0742 106.676 77.2327 106.684C78.5476 106.696 79.3324 107.22 79.6481 108.271C79.9493 109.273 79.5844 110.07 78.4954 110.806C78.4114 110.863 78.3448 110.947 78.2724 111.02H64.3709V111.017Z" fill="#0C3A30"/>
<path d="M71.2435 51.2088C57.1045 51.1885 45.659 39.743 45.6619 25.6272C45.6619 11.4738 57.1769 -0.00651444 71.3478 0.0224469C85.507 0.0485122 97.0018 11.5925 96.9496 25.7315C96.8975 39.8212 85.3853 51.2291 71.2435 51.2088ZM71.2782 46.8733C83.0279 46.8762 92.5793 37.3971 92.6083 25.6967C92.6373 13.9442 83.0829 4.36955 71.3188 4.35507C59.5431 4.34349 49.9945 13.8863 50.009 25.6562C50.0206 37.3826 59.5315 46.8675 71.2811 46.8704L71.2782 46.8733Z" fill="#0C3A30"/>
<path d="M17.2625 30.8229C17.2625 30.2929 17.2625 29.8729 17.2625 29.4501C17.2625 20.6401 17.2625 11.83 17.2625 3.01995C17.2625 0.71462 17.943 0.0224413 20.2136 0.0224413C23.9757 0.0224413 27.7378 0.016649 31.4999 0.0224413C33.4229 0.0253374 34.1788 0.78992 34.1788 2.73033C34.1817 11.6128 34.1788 20.4952 34.1788 29.3748C34.1788 29.8034 34.1788 30.2321 34.1788 30.82C35.3778 30.82 36.5189 30.8374 37.66 30.8142C38.6678 30.7939 39.5396 31.0256 40.0435 31.9784C40.5445 32.9226 40.2491 33.7654 39.7046 34.611C35.7427 40.774 31.8011 46.9515 27.8449 53.1203C26.5822 55.0896 24.8706 55.0809 23.5992 53.1029C19.6634 46.966 15.7391 40.8175 11.7974 34.6863C11.2385 33.8175 10.8562 32.9602 11.4123 31.9669C11.9625 30.9851 12.8777 30.7852 13.9174 30.8171C14.9919 30.8489 16.0692 30.8229 17.2596 30.8229H17.2625ZM34.1962 35.1584C33.6459 35.1584 33.3592 35.1584 33.0696 35.1584C30.3704 35.1468 29.8375 34.611 29.8375 31.9205C29.8375 23.1771 29.8375 14.4336 29.8375 5.69019V4.41878H21.6791V30.7736C21.9976 30.7939 22.2467 30.82 22.4958 30.8229C24.5897 30.8547 25.5686 31.5643 25.5454 33.0442C25.5222 34.4778 24.552 35.1584 22.5189 35.1613C20.8421 35.1613 19.1652 35.1613 17.2653 35.1613C20.1586 39.6764 22.9099 43.9685 25.7337 48.3793C28.5893 43.9192 31.3261 39.6416 34.1933 35.1613L34.1962 35.1584Z" fill="#0C3A30"/>
<path d="M77.699 95.6385C78.8546 95.7109 79.8074 96.7593 79.7524 97.8917C79.6916 99.082 78.5852 100.049 77.4007 99.9508C76.2278 99.8524 75.3589 98.8358 75.4342 97.6484C75.5095 96.4726 76.529 95.5661 77.699 95.6385Z" fill="#0C3A30"/>
<path d="M27.0137 73.2832C28.5603 73.6828 29.9938 73.9319 31.329 74.4358C32.6554 74.9369 33.0261 75.9476 32.6525 77.2393C32.1833 78.8582 31.1204 79.3245 29.5826 78.6352C28.8064 78.2877 27.9926 78.0213 26.9905 77.6419C26.9905 79.3187 26.9645 80.7494 27.0195 82.1772C27.0282 82.3944 27.367 82.6638 27.6161 82.7941C28.4154 83.2111 29.2727 83.5181 30.0547 83.9641C32.5888 85.4122 33.6372 87.6306 33.3244 90.5036C33.0319 93.197 31.5867 95.0332 29.1018 96.0584C28.4705 96.3191 27.8015 96.4812 27.0745 96.7129C26.9934 97.5296 26.95 98.4564 25.7336 98.4622C24.6534 98.468 24.4246 97.7526 24.4506 96.9446C23.24 96.6579 22.0729 96.5189 21.0245 96.0874C20.0137 95.6703 19.0291 95.0592 18.2152 94.3294C17.1813 93.4055 17.1668 92.1457 17.9169 90.9815C18.6873 89.7854 19.6372 89.5653 20.8594 90.298C21.96 90.9583 23.0605 91.6186 24.468 92.4614C24.468 90.4544 24.4912 88.8209 24.4362 87.1904C24.4304 86.9877 24.022 86.7502 23.7556 86.617C22.8549 86.1623 21.8904 85.8177 21.0245 85.305C16.8512 82.8375 16.9554 77.0047 21.207 74.6675C21.7717 74.3576 22.3915 74.1317 23.0113 73.9406C23.7758 73.706 24.6534 73.7205 24.6186 72.507C24.6128 72.2869 25.3977 71.8467 25.7973 71.8699C26.1999 71.893 26.6112 72.3303 26.9413 72.6663C27.0774 72.8053 27.0021 73.1471 27.0137 73.2774V73.2832ZM26.6893 91.998C28.0129 91.7605 28.6269 91.1176 28.6037 90.0547C28.5805 89.0266 27.7986 88.2099 26.6893 88.0419V91.998ZM24.7924 78.0473C23.5905 78.169 22.8201 78.7685 22.7477 79.6112C22.6695 80.5032 23.4804 81.291 24.7924 81.5806V78.0473Z" fill="#FFDB1E"/>
<path d="M72.6278 21.5118C73.6733 21.5118 74.6436 21.4944 75.6138 21.5147C76.7404 21.5378 77.2414 22.1171 77.2356 23.3392C77.2298 24.5585 76.7375 25.1059 75.5761 25.1233C74.4234 25.1406 73.2708 25.1262 72.0226 25.1262C71.6634 27.6082 71.3159 30.0177 70.9481 32.5634C73.0941 32.5634 75.1475 32.5692 77.2008 32.5605C78.0089 32.5577 78.8401 32.4997 79.2571 33.3975C79.7089 34.3706 79.7726 35.4017 79.1528 36.2879C78.8951 36.6586 78.2724 36.9772 77.8148 36.983C73.4011 37.0351 68.9845 37.0264 64.5708 37.0032C63.4152 36.9974 62.8592 36.2473 62.8418 34.8485C62.8244 33.3917 63.3921 32.6301 64.565 32.5663C64.9589 32.5461 65.3556 32.5634 65.9059 32.5634C66.2534 30.1249 66.5981 27.7153 66.9543 25.2015C66.6039 25.1754 66.2969 25.1377 65.987 25.1291C64.7532 25.0885 64.1943 24.5411 64.1827 23.345C64.1711 22.1084 64.7677 21.4423 66.0449 21.5321C67.1628 21.6102 67.6001 21.3235 67.7073 20.1187C68.1707 14.7927 72.4801 11.7952 77.5513 12.0153C78.8545 12.0704 79.5554 12.8234 79.5699 14.1817C79.5844 15.5863 78.8545 16.3972 77.531 16.4406C77.4962 16.4406 77.4586 16.4406 77.4238 16.4406C73.4938 16.2437 72.8306 17.7787 72.6278 21.5089V21.5118Z" fill="#FFDB1E"/>
</svg>
