<svg width="111" height="111" viewBox="0 0 111 111" fill="none" xmlns="http://www.w3.org/2000/svg">
<path d="M110.445 77.3461C110.381 74.5474 108.926 72.3977 106.544 71.1767C105.686 70.7369 105.488 70.2202 105.491 69.2668C105.517 49.5778 105.514 29.8919 105.499 10.2028C105.499 9.17256 105.433 8.12075 105.238 7.11201C104.584 3.75361 101.588 -0.00766025 96.2408 0.0200188C78.8744 0.109207 61.505 0.0538496 44.1386 0.056925C43.7454 0.056925 43.3464 0.0538497 42.959 0.112283C41.9574 0.266056 41.2169 1.15486 41.1538 2.23127C41.0935 3.28 41.7565 4.28874 42.7466 4.53478C43.2259 4.65472 43.7396 4.66395 44.2362 4.66395C61.4247 4.6701 78.6132 4.6701 95.8017 4.6701C96.3384 4.6701 96.878 4.66395 97.4118 4.71623C99.2055 4.88846 100.718 6.32469 101.062 8.23147C101.183 8.90499 101.203 9.6062 101.206 10.2951C101.212 29.8304 101.2 49.3625 101.24 68.8978C101.24 70.2356 101.022 71.1275 99.6016 71.2843C97.3056 67.5815 94.0998 66.5697 90.1019 68.1013V66.6066C90.1019 48.8797 90.1019 31.1528 90.1019 13.4259C90.1019 10.7349 89.4934 10.0706 87.0137 10.0706C62.3775 10.0706 37.7413 10.0706 13.1022 10.0706C10.6168 10.0706 9.97679 10.7503 9.97679 13.4044C9.97679 33.361 9.97679 53.3206 9.97679 73.2772C9.97679 75.9467 10.591 76.6049 13.085 76.6049C27.3375 76.6049 41.59 76.6049 55.8425 76.6049H57.111C56.7552 78.5178 56.4337 80.237 56.0979 82.0423H55.0705C39.8881 82.0423 24.7028 82.0423 9.52046 82.0423C6.51842 82.0423 4.79928 80.1908 4.79928 76.9585C4.79928 54.5416 4.79928 32.1216 4.80215 9.70461C4.80215 9.20947 4.8165 8.69894 4.91982 8.21917C5.40199 6.00177 7.0178 4.69163 9.34538 4.67933C14.2502 4.6578 19.158 4.67933 24.0628 4.66395C25.5724 4.6578 26.4995 3.75977 26.5167 2.38811C26.5339 0.985709 25.6385 0.0692265 24.1288 0.066151C19.0087 0.0507738 13.8857 0.00156741 8.76851 0.103057C4.86529 0.179944 1.74846 2.97245 0.746821 7.01667C0.683681 7.26578 0.58323 7.50566 0.5 7.74862V78.813C0.53444 78.8807 0.583231 78.9422 0.603321 79.013C2.04694 84.3735 4.86529 86.6585 10.0543 86.6585C24.987 86.6585 39.9197 86.6585 54.8523 86.6585H56.2386C56.2386 87.2951 56.2386 87.821 56.2386 88.3469C56.2673 94.1534 57.9864 99.2955 61.5997 103.629C63.1754 105.517 64.9089 107.252 66.5821 109.042C67.6727 110.207 68.9929 110.318 69.8969 109.346C70.8326 108.344 70.7379 107.009 69.6186 105.791C68.261 104.315 66.8777 102.86 65.5144 101.39C63.2902 98.9942 61.7662 96.1678 61.0401 92.8679C60.2164 89.1097 60.4977 85.293 60.6182 81.4979C60.7473 77.4076 63.2012 74.7934 66.0655 72.2162V73.5479C66.0655 76.854 66.0655 80.1632 66.0655 83.4693C66.0655 83.8137 66.0483 84.1643 66.0884 84.5057C66.2348 85.7543 67.1561 86.6555 68.2524 86.6401C69.4148 86.6247 70.2844 85.6805 70.3533 84.3396C70.3705 83.9952 70.3619 83.6477 70.3619 83.3001C70.3619 73.3418 70.3619 63.3804 70.3648 53.4221C70.3648 52.6133 70.3389 51.8044 70.3791 50.9987C70.4451 49.6547 71.0335 48.646 72.2217 48.1447C74.1704 47.3204 76.1392 48.8674 76.145 51.2539C76.1622 58.3306 76.1507 65.4041 76.1564 72.4807C76.1564 74.1537 76.9801 75.2425 78.2487 75.2978C79.4369 75.347 80.2634 74.4398 80.4615 72.859C80.6882 71.0598 81.8391 69.9219 83.3889 69.965C84.9215 70.008 86.0465 71.2382 86.1585 73.0374C86.2072 73.8431 86.1412 74.6581 86.2273 75.4547C86.3364 76.4757 87.163 77.2507 88.1187 77.3553C89.0285 77.4568 89.9985 76.8017 90.297 75.8391C90.409 75.4793 90.4434 75.0887 90.495 74.7073C90.7333 73.0281 91.9272 71.9548 93.4741 72.0378C94.9579 72.1178 96.0629 73.2926 96.1432 74.9349C96.1892 75.8545 96.1432 76.7802 96.1691 77.7028C96.2092 79.2159 96.9497 80.157 98.1436 80.2554C99.4064 80.36 100.253 79.5266 100.465 77.9765C100.73 76.0482 101.946 74.8365 103.519 74.9411C105.152 75.0487 106.211 76.4111 106.214 78.444C106.22 81.9439 106.185 85.4437 106.22 88.9405C106.26 92.9878 105.23 96.666 103.106 100.009C101.817 102.042 100.557 104.096 99.3031 106.154C98.4622 107.532 98.6545 108.931 99.7508 109.678C100.81 110.398 102.038 110.029 102.873 108.697C104.271 106.464 105.669 104.232 107.032 101.977C108.832 99.0003 110.14 95.7711 110.29 92.2159C110.496 87.2675 110.556 82.3006 110.445 77.3491V77.3461ZM85.728 65.5794H80.4873C80.4816 65.4225 80.45 65.0227 80.45 64.6229C80.4471 60.2004 80.4557 55.781 80.4443 51.3585C80.4328 46.8161 77.2901 43.3131 73.2405 43.3008C69.277 43.2916 66.1114 46.8038 66.0684 51.2816C66.0511 53.0408 66.0511 61.3968 66.0511 61.3968C66.0511 62.7623 66.0827 64.097 66.0253 65.4256C66.0138 65.7086 65.7211 66.0099 65.5001 66.2437C63.8671 67.969 62.2397 69.7036 60.5608 71.3766C60.2336 71.7026 59.6998 71.9579 59.2607 71.9579C44.5806 71.9886 29.9004 71.9825 15.2203 71.9794C14.9419 71.9794 14.6664 71.9302 14.3306 71.8994V14.7453H85.7251V65.5763L85.728 65.5794Z" fill="#0C3A30"/>
<path d="M33.8553 0.0846009C35.0578 0.0907518 35.9648 1.05337 35.9676 2.3266C35.9705 3.59369 35.0521 4.61474 33.8926 4.63627C32.6987 4.6578 31.677 3.57216 31.7057 2.31123C31.7344 1.05029 32.6729 0.07845 33.8582 0.0846009H33.8553Z" fill="#0C3A30"/>
<path d="M74.9654 25.1772C74.0298 24.1869 72.767 24.2546 71.6707 25.4171C69.0073 28.2526 66.3554 31.1067 63.7092 33.9699C63.4308 34.2713 63.2386 34.668 62.9056 35.1786C62.1193 34.3021 61.5596 33.6501 60.9712 33.0257C59.476 31.4296 58.4456 31.4265 56.9704 33.0073C54.6486 35.4922 52.3296 37.9834 50.0078 40.4745C49.7495 40.7482 49.4854 41.0065 49.1669 41.3325C47 39.0013 44.8676 36.7101 42.7352 34.4189C41.7823 33.3948 40.8266 32.3707 39.8766 31.3465C38.0743 29.4121 37.1874 29.4059 35.4166 31.3066C33.1206 33.77 30.8303 36.2334 28.5343 38.6938C28.2846 38.9614 28.0206 39.2043 27.6045 39.6103V38.2632C27.6045 32.6659 27.6131 27.0686 27.593 21.4713C27.5901 20.9023 27.5384 20.2657 27.306 19.7736C26.8496 18.8049 26.0145 18.3774 25.0157 18.5957C23.9825 18.8202 23.3511 19.5706 23.2564 20.7055C23.1875 21.5605 23.242 22.4247 23.242 23.4734C22.1973 23.4734 21.1928 23.4672 20.1883 23.4765C18.6213 23.4888 17.6139 24.4299 17.6312 25.8507C17.6512 27.2285 18.6385 28.145 20.1395 28.1696C21.0866 28.185 22.0338 28.1881 22.978 28.2004C23.0096 28.2004 23.0411 28.228 23.2277 28.3111V34.7049C22.1686 34.7049 21.1613 34.6926 20.1568 34.708C18.6271 34.7295 17.657 35.6153 17.6312 36.99C17.6025 38.4139 18.6041 39.3704 20.174 39.4011C21.0867 39.4165 21.9964 39.4135 22.9062 39.4258C22.9723 39.4288 23.0383 39.475 23.2306 39.5549V45.9211C22.1199 45.9211 21.1096 45.8996 20.0965 45.9242C18.5754 45.9672 17.6197 46.896 17.6312 48.28C17.6455 49.667 18.5955 50.5681 20.1309 50.605C21.1125 50.6296 22.094 50.6112 23.1502 50.6112V56.6298C22.1285 56.6298 21.1211 56.6083 20.1108 56.6329C18.6041 56.6698 17.6312 57.6109 17.6312 58.9887C17.6283 60.3726 18.6012 61.2953 20.108 61.3199C21.0206 61.3353 21.9304 61.3291 22.8431 61.3383C22.9091 61.3383 22.9809 61.3722 23.2277 61.4429C23.2277 62.5439 23.2191 63.7003 23.2277 64.8505C23.242 66.5789 24.0629 67.6215 25.4032 67.6307C26.7635 67.6369 27.5844 66.6158 27.5958 64.8782C27.6045 63.7526 27.5987 62.6208 27.5987 61.406H66.1C66.1 62.4916 66.1086 57.777 66.1114 56.5591H27.5987C27.5987 53.2191 27.5901 49.9438 27.6159 46.6684C27.6188 46.407 27.8283 46.0995 28.0177 45.8965C31.1748 42.4858 34.349 39.0844 37.6036 35.5907C37.9078 35.8982 38.1948 36.1719 38.4675 36.4672C41.3805 39.5918 44.2907 42.7226 47.2038 45.8442C48.6905 47.4373 49.6978 47.4342 51.2046 45.8196C53.7589 43.0855 56.3046 40.3453 59.0081 37.4452C59.697 38.2233 60.3398 39.0013 61.0286 39.721C62.1939 40.9389 63.3333 40.9635 64.4784 39.7456C67.9224 36.0858 71.3521 32.4045 74.7645 28.7078C75.8351 27.5514 75.8752 26.1429 74.954 25.168L74.9654 25.1772Z" fill="#FFDB1E"/>
</svg>
