<svg width="111" height="111" viewBox="0 0 111 111" fill="none" xmlns="http://www.w3.org/2000/svg">
<path d="M0.5 86.1911C0.5 62.1292 0.5 38.0673 0.5 14.0055C0.564539 13.882 0.64872 13.7641 0.688005 13.6322C1.72624 10.2958 3.92619 8.65711 7.41411 8.63467C7.93884 8.63186 8.46638 8.63467 9.09493 8.63467C9.09493 8.11274 9.03601 7.68342 9.10616 7.27654C9.32503 6.02785 9.41763 4.71461 9.88343 3.55572C10.6888 1.54658 12.5127 0.659871 14.4657 0.0397339C15.1813 0.0397339 15.8968 0.0397339 16.6152 0.0397339C16.7751 0.109885 16.9322 0.196872 17.1006 0.247381C20.2378 1.21547 21.9382 3.47153 21.9859 6.74058C21.9944 7.33827 21.9859 7.93596 21.9859 8.58135H39.8184C39.8184 8.11274 39.7595 7.68342 39.8296 7.27935C40.0485 6.02785 40.1411 4.71742 40.6069 3.55852C41.4122 1.54939 43.2362 0.662678 45.1892 0.0425405C45.9047 0.0425405 46.6203 0.0425405 47.3386 0.0425405C47.4985 0.112692 47.6557 0.199679 47.824 0.250188C50.9612 1.21828 52.6617 3.47434 52.7094 6.74339C52.7178 7.34108 52.7094 7.93877 52.7094 8.58416H70.5418C70.5418 8.11835 70.4829 7.68903 70.5531 7.28215C70.7719 6.03065 70.8645 4.72023 71.3303 3.56133C72.1357 1.5522 73.9596 0.665482 75.9126 0.045345C76.6282 0.045345 77.3437 0.045345 78.062 0.045345C78.1883 0.107078 78.309 0.188454 78.4437 0.227739C81.7913 1.26878 83.416 3.46031 83.4328 6.97629C83.4328 7.50102 83.4328 8.02575 83.4328 8.63747C85.3353 8.63747 87.1172 8.63747 88.899 8.63747C93.7703 8.63747 96.3238 11.1798 96.3238 16.0286C96.3238 30.7744 96.3294 45.5202 96.3098 60.266C96.3098 60.9507 96.4782 61.3435 97.1067 61.6943C103.277 65.1205 107.399 70.2359 109.42 76.9901C109.919 78.6569 110.149 80.4022 110.5 82.1111V86.4072C110.424 86.7888 110.337 87.1676 110.276 87.552C108.645 97.6426 103.114 104.658 93.5963 108.381C91.4637 109.215 89.1151 109.501 86.8674 110.037H82.3553C82.1224 109.967 81.8951 109.871 81.6566 109.835C71.2742 108.252 64.1665 102.584 60.4429 92.7545C60.0949 91.8369 59.7189 91.5338 58.7256 91.5366C41.6984 91.5731 24.6713 91.5563 7.64421 91.5731C5.70522 91.5731 3.85323 91.2167 2.55964 89.7464C1.67293 88.739 1.17345 87.3893 0.502807 86.1911H0.5ZM91.9913 30.8389H4.79606V31.9782C4.79606 49.4122 4.79606 66.8462 4.79606 84.283C4.79606 86.5952 5.48074 87.2658 7.83221 87.2658C24.5142 87.2658 41.199 87.2658 57.8809 87.2658H59.0875C58.3411 78.1237 61.2061 70.4632 68.137 64.6013C75.0933 58.7171 83.1719 57.2495 91.9913 59.4607V30.8389ZM106.198 84.2241C106.181 72.4162 96.5315 62.7802 84.7208 62.7774C72.927 62.7774 63.2685 72.419 63.2377 84.2269C63.2068 96.0179 72.9999 105.797 84.7797 105.738C96.6016 105.679 106.215 96.0235 106.198 84.2241ZM21.9831 12.9504C21.9831 13.6463 21.9915 14.2468 21.9831 14.8473C21.9186 18.6551 19.1743 21.5004 15.5601 21.5144C11.9543 21.5313 9.1707 18.6803 9.09493 14.8894C9.08371 14.258 9.09493 13.6266 9.09493 12.9279C8.5702 12.9279 8.18297 12.9279 7.79573 12.9279C5.47513 12.9279 4.79887 13.6098 4.79887 15.9472C4.79887 19.062 4.79887 22.1739 4.79887 25.2886V26.3801H92.0193C92.0193 22.6144 92.039 18.9301 92.0081 15.2457C91.9969 13.9437 91.2505 13.0233 90.0383 12.9756C87.8692 12.8914 85.6945 12.9504 83.4272 12.9504C83.4272 13.6715 83.4412 14.3057 83.4272 14.9399C83.3374 18.6719 80.5875 21.4864 77.0154 21.5088C73.4096 21.5313 70.6204 18.6803 70.5418 14.8922C70.5278 14.2608 70.5418 13.6294 70.5418 12.9981H52.6869C52.6869 13.8567 52.7599 14.6508 52.6673 15.4225C52.5719 16.1942 52.4119 16.9883 52.1033 17.6954C50.9135 20.4089 48.0205 21.9185 45.1723 21.3938C42.167 20.841 40.0485 18.4615 39.8492 15.3692C39.7959 14.5667 39.8408 13.7613 39.8408 12.9448H21.9887L21.9831 12.9504ZM17.6871 10.8514C17.6871 9.49051 17.7067 8.13238 17.6814 6.77145C17.6534 5.3123 16.7442 4.32738 15.504 4.35263C14.2945 4.37789 13.4134 5.33195 13.3994 6.73778C13.3714 9.42036 13.3742 12.1058 13.3994 14.7911C13.4134 16.2503 14.3338 17.2352 15.5769 17.21C16.7835 17.1847 17.6506 16.2278 17.6814 14.8248C17.7095 13.5004 17.6871 12.1759 17.6871 10.8514ZM48.4105 10.7813C48.4105 9.45684 48.4273 8.13239 48.4049 6.80793C48.3796 5.33475 47.5042 4.35263 46.2639 4.35263C45.0208 4.35263 44.1313 5.33475 44.1201 6.80793C44.0976 9.45684 44.0976 12.1058 44.1201 14.7519C44.1313 16.225 45.018 17.2072 46.2611 17.2072C47.5042 17.2072 48.3796 16.225 48.4049 14.7519C48.4273 13.4274 48.4105 12.1029 48.4105 10.7785V10.7813ZM79.1312 10.8963C79.1312 9.53541 79.148 8.17728 79.1255 6.81635C79.1031 5.34036 78.2332 4.35825 76.9901 4.35263C75.7442 4.34983 74.8519 5.32914 74.8407 6.79951C74.8183 9.44842 74.8183 12.0973 74.8407 14.7434C74.8519 16.2194 75.733 17.2015 76.9761 17.2072C78.2192 17.2128 79.1003 16.2278 79.1255 14.7575C79.148 13.4695 79.1312 12.1815 79.1312 10.8935V10.8963Z" fill="#0C3A30"/>
<path d="M24.5619 78.6709C27.3904 78.6709 30.2189 78.6512 33.0474 78.6765C34.8405 78.6933 35.9208 80.0683 35.3483 81.5499C34.9836 82.4927 34.2372 82.9501 33.2606 82.9529C27.3904 82.9669 21.5201 82.9753 15.6471 82.9473C14.3282 82.9417 13.4078 81.9876 13.4078 80.8147C13.4078 79.6081 14.3619 78.6905 15.7565 78.6765C18.6916 78.6484 21.6268 78.6681 24.5619 78.6681V78.6709Z" fill="#FFDB1E"/>
<path d="M22.1992 44.2968C20.1227 44.2968 18.0462 44.308 15.9698 44.294C14.4124 44.2827 13.4078 43.4269 13.4078 42.1501C13.4078 40.8734 14.4124 40.0119 15.9698 40.0063C20.1929 39.9951 24.4188 39.9951 28.6419 40.0063C30.1992 40.0119 31.2038 40.8734 31.2038 42.1501C31.2038 43.4269 30.1992 44.2827 28.6419 44.294C26.4953 44.308 24.3458 44.2968 22.1992 44.2968Z" fill="#FFDB1E"/>
<path d="M48.7781 40.0007C50.9612 40.0007 53.1443 39.9895 55.3303 40.0063C56.304 40.0147 57.0644 40.4272 57.4572 41.3588C57.8164 42.2091 57.6677 43.0509 56.9774 43.6065C56.5144 43.9797 55.8297 44.2575 55.2405 44.2659C50.9107 44.3192 46.5782 44.308 42.2456 44.2883C40.7893 44.2827 39.8044 43.3455 39.8352 42.1024C39.8661 40.893 40.8202 40.0259 42.2288 40.0091C44.4119 39.981 46.595 40.0007 48.7809 40.0035L48.7781 40.0007Z" fill="#FFDB1E"/>
<path d="M22.3676 52.8889C24.444 52.8889 26.5205 52.8805 28.597 52.8917C30.174 52.9001 31.1729 53.7167 31.2066 54.9906C31.2403 56.2982 30.2077 57.1793 28.583 57.1822C24.3935 57.1906 20.2069 57.1906 16.0175 57.1822C14.4405 57.1793 13.4415 56.3572 13.4078 55.0832C13.3742 53.7756 14.4068 52.9001 16.0315 52.8917C18.1445 52.8805 20.2546 52.8917 22.3676 52.8917V52.8889Z" fill="#FFDB1E"/>
<path d="M48.8398 52.8889C50.9163 52.8889 52.9928 52.8777 55.0693 52.8917C56.6266 52.9029 57.6312 53.7588 57.6312 55.0383C57.6312 56.3151 56.6266 57.1765 55.0693 57.1822C50.8462 57.1934 46.6202 57.1934 42.3971 57.1822C40.8398 57.1765 39.8352 56.3151 39.8352 55.0383C39.8352 53.7616 40.8398 52.9057 42.3971 52.8945C44.5438 52.8805 46.6932 52.8917 48.8398 52.8917V52.8889Z" fill="#FFDB1E"/>
<path d="M22.202 70.076C20.1255 70.076 18.049 70.0872 15.9726 70.0732C14.4124 70.0619 13.4078 69.2089 13.405 67.9321C13.4022 66.6554 14.4068 65.7883 15.9642 65.7827C20.1873 65.7715 24.4132 65.7715 28.6363 65.7827C30.1964 65.7855 31.201 66.647 31.2038 67.9237C31.2066 69.2005 30.2021 70.0619 28.6447 70.0732C26.4981 70.0872 24.3486 70.076 22.202 70.076Z" fill="#FFDB1E"/>
<path d="M48.7304 70.076C46.6174 70.076 44.5073 70.0872 42.3943 70.0732C40.837 70.0619 39.8324 69.2061 39.8324 67.9293C39.8324 66.6526 40.837 65.7883 42.3943 65.7855C46.6174 65.7743 50.8433 65.7743 55.0664 65.7855C56.6238 65.7911 57.6284 66.6526 57.6284 67.9293C57.6284 69.2061 56.6238 70.0619 55.0664 70.0732C52.9535 70.0872 50.8433 70.076 48.7304 70.076Z" fill="#FFDB1E"/>
<path d="M74.9417 40.0007C76.9115 40.0007 78.8786 39.9895 80.8484 40.0035C82.4058 40.0147 83.4103 40.8706 83.4103 42.1501C83.4103 43.4269 82.4058 44.2884 80.8484 44.294C76.8386 44.3052 72.8287 44.3052 68.8217 44.294C67.2643 44.2884 66.2598 43.4269 66.2598 42.1501C66.2598 40.8734 67.2643 40.0175 68.8217 40.0063C70.8617 39.9923 72.9017 40.0035 74.9417 40.0035V40.0007Z" fill="#FFDB1E"/>
<path d="M44.0948 80.7895C44.1117 81.9147 43.1211 82.9305 41.9931 82.9501C40.8679 82.967 39.8521 81.9764 39.8324 80.8484C39.8156 79.7232 40.8033 78.7074 41.9342 78.6877C43.0594 78.6681 44.0752 79.6586 44.0948 80.7895Z" fill="#FFDB1E"/>
<path d="M87.221 81.9764C87.5296 82.0971 87.8383 82.2205 88.1498 82.3356C91.4413 83.5787 93.2624 85.9189 93.3747 89.042C93.4869 92.2045 91.5788 95.437 88.6044 96.6661C87.4511 97.1431 87.0133 97.6566 87.134 98.8801C87.2322 99.8622 86.5812 100.586 85.7338 100.766C84.6001 101.007 83.5871 100.241 83.503 99.0512C83.4665 98.5377 83.4974 98.0214 83.4974 97.4658C81.5864 97.3143 79.9084 96.7222 78.3791 95.7008C77.31 94.9853 76.9957 93.9919 77.5738 93.0575C78.149 92.1259 79.1732 91.9772 80.3013 92.5608C81.2778 93.0659 82.3048 93.4784 83.4889 94.0144C83.4889 90.7229 83.4974 87.7597 83.4693 84.7993C83.4693 84.6085 83.2055 84.3615 83.0035 84.2409C82.3777 83.8649 81.7127 83.5506 81.0785 83.1858C78.6906 81.8108 77.7001 79.6951 78.0368 77.0181C78.3932 74.2093 79.9253 72.2394 82.6275 71.2517C82.8856 71.1563 83.1522 71.0945 83.4412 71.0104C83.6152 70.0198 83.1691 68.8441 84.1933 68.1285C84.5412 67.8844 85.0379 67.7385 85.4616 67.7441C86.6963 67.761 87.0554 68.4653 87.1957 70.8476C88.4023 71.4172 89.6174 71.9027 90.7398 72.5453C91.8061 73.157 92.0137 74.3215 91.3627 75.2166C90.7931 76.0023 89.8475 76.1875 88.9186 75.6993C88.3883 75.4187 87.8551 75.1409 87.221 74.8097V81.9792V81.9764ZM87.1873 93.2539C88.8625 92.4289 89.8783 90.5966 89.6651 88.9298C89.4686 87.3949 88.5623 86.3286 87.1873 86.0283V93.2539ZM83.4496 74.8518C82.0663 75.7021 81.5443 76.8245 81.6678 78.2472C81.7604 79.3078 82.4731 79.855 83.4496 80.2282V74.8518Z" fill="#0C3A30"/>
</svg>
