<svg width="111" height="111" viewBox="0 0 111 111" fill="none" xmlns="http://www.w3.org/2000/svg">
<path d="M110.5 37.1594C109.861 38.3146 108.892 38.6971 107.574 38.6866C101.523 38.6368 95.4712 38.6735 89.4199 38.6499C88.7519 38.6499 88.338 38.8281 87.9162 39.3834C85.1918 42.9645 81.8125 45.6051 77.2779 46.4748C76.4763 46.6293 75.6249 46.7524 74.8259 46.6477C73.6157 46.4879 72.8638 46.9961 72.0544 47.8134C65.4005 54.5275 58.7048 61.1971 52.0195 67.8797C50.453 69.4463 49.392 69.4436 47.8281 67.8797C34.6095 54.669 21.3935 41.4556 8.17745 28.2422C6.40397 26.4687 6.40921 25.6592 8.20627 23.8622C15.6512 16.4198 23.091 8.97745 30.5438 1.54296C31.0939 0.992838 31.7122 0.510827 32.299 0C32.7286 0 33.1582 0 33.5878 0C34.1563 0.479391 34.7614 0.922108 35.2906 1.44341C37.2789 3.40289 39.2279 5.40429 41.2345 7.34281C41.4965 7.59429 42.0754 7.77767 42.3976 7.66764C45.1718 6.7272 47.9512 5.79199 50.6704 4.69961C55.6712 2.69297 60.5988 2.84229 65.4477 5.07683C68.4655 6.46785 71.4204 7.99248 74.3727 9.5171C76.4999 10.6147 78.5537 11.8564 80.6861 12.9436C82.0875 13.6587 83.6148 13.9888 85.1944 13.9626C85.5821 11.7647 86.0851 11.3063 88.0341 11.2906C88.6785 11.2853 89.323 11.2906 89.9674 11.2906C91.0964 11.2906 92.2281 11.2906 93.4384 11.2906C93.4384 10.7955 93.4358 10.4785 93.4384 10.1615C93.462 7.92699 94.1011 7.2878 96.3226 7.2878C100.082 7.2878 103.841 7.32709 107.597 7.26422C108.918 7.24326 109.895 7.61001 110.5 8.80718V37.1594ZM45.232 11.2722C45.3709 11.4556 45.4416 11.5787 45.5385 11.6757C47.9669 14.1067 50.3875 16.5456 52.8368 18.9556C53.125 19.2385 53.5441 19.4298 53.9397 19.5581C57.5783 20.7291 61.2275 21.8739 64.8688 23.0344C66.1288 23.4352 67.4019 23.8045 68.6358 24.2734C69.7386 24.6926 70.218 25.8138 69.8775 26.9114C69.5657 27.9173 68.5179 28.5277 67.4098 28.3286C67.0614 28.2658 66.7234 28.1348 66.3829 28.0274C60.3185 26.1098 54.2567 24.1791 48.187 22.2773C46.1908 21.6512 44.2523 22.3899 43.249 24.0796C42.2326 25.7902 42.4552 27.8545 44.0218 29.2586C44.8208 29.9764 45.8346 30.5553 46.851 30.9142C52.1086 32.7636 57.4081 34.4926 62.6657 36.3447C63.4515 36.6224 64.2086 37.2144 64.7718 37.8483C68.1433 41.6258 72.3452 43.1059 77.236 42.0528C80.728 41.301 83.1511 38.849 85.087 35.9386C85.2494 35.6924 85.2966 35.3309 85.2966 35.0218C85.3097 29.7589 85.2966 24.4987 85.3175 19.2359C85.3202 18.5705 85.1473 18.2928 84.4347 18.2431C81.8282 18.0623 79.4234 17.2267 77.1155 15.9928C72.5757 13.5697 68.0333 11.1465 63.4149 8.88315C60.2477 7.33233 56.8579 7.12276 53.4865 8.2492C50.7437 9.16345 48.0508 10.2323 45.2268 11.2722H45.232ZM53.3319 37.6885C53.159 38.1679 53.0333 38.5321 52.8945 38.891C50.9585 43.994 45.5909 47.3523 40.3543 46.7367C34.4785 46.0478 29.9465 41.7044 29.31 36.1587C28.6472 30.3772 31.7724 25.0593 37.1322 23.1444C38.497 22.6571 39.5134 22.0389 40.3543 20.826C41.5384 19.1154 43.4009 18.2928 45.3106 17.8423C43.8201 16.3517 42.34 14.8716 40.7865 13.3182C40.9097 13.3051 40.8678 13.2972 40.8389 13.3156C35.715 16.501 30.5674 16.6608 25.3727 13.4754C25.2024 13.3706 24.7937 13.4072 24.6549 13.5408C23.1146 15.0288 21.6083 16.5508 20.1125 18.044C23.518 23.4378 23.4996 28.7451 20.2749 33.8508C27.5915 41.1674 34.8636 48.4421 42.1776 55.7561C44.4383 54.1607 47.1025 53.3277 50.005 53.3356C52.8971 53.3434 55.5429 54.2393 57.8455 55.8478C59.5195 54.1712 61.1096 52.5785 62.7469 50.9412C60.5516 47.7086 59.7736 44.0988 60.5149 40.1169C58.0944 39.297 55.742 38.5006 53.3345 37.6859L53.3319 37.6885ZM106.123 34.3197V11.6521H97.8105V34.3197H106.123ZM49.0855 36.2058C44.2759 34.7939 39.4584 33.2745 38.4105 27.3279C35.0758 28.4072 32.9539 32.3288 33.6297 36.0225C34.3161 39.7842 37.7661 42.5872 41.6012 42.5008C45.2635 42.417 48.7083 39.5773 49.0881 36.2058H49.0855ZM89.6897 15.6496V34.2935H93.3755V15.6496H89.6897ZM54.5448 58.9468C52.119 57.1655 47.7076 57.1707 45.2897 58.9678C46.8588 60.5343 48.4358 62.1113 49.9107 63.5809C51.4039 62.0877 52.9809 60.5107 54.5448 58.9468ZM12.1278 26.0784C12.3715 26.3351 12.5863 26.5709 12.8089 26.7961C14.1659 28.1662 15.5229 29.5337 16.8877 30.909C18.8236 28.3705 18.8262 23.7312 16.8772 21.2399C15.515 22.6178 14.1581 23.9853 12.8063 25.358C12.581 25.5859 12.3689 25.8216 12.1278 26.0784ZM32.7653 5.24449C32.0501 6.00942 31.3166 6.83198 30.5412 7.61263C29.7501 8.409 28.917 9.16345 28.0787 9.95981C30.7953 11.9245 35.453 11.8983 37.6142 10.096C36.0634 8.54522 34.5073 6.98916 32.7626 5.24449H32.7653ZM64.6697 43.6403C64.5858 43.6744 64.4994 43.7111 64.4156 43.7451C64.8504 45.1152 65.2827 46.4826 65.6887 47.761C66.6082 46.9384 67.3888 46.239 68.1852 45.5291C66.9697 44.8742 65.8197 44.2586 64.6697 43.6403Z" fill="#0C3A30"/>
<path d="M25.8023 99.2628C25.4434 101.547 24.909 101.998 22.6823 102C21.1079 102 19.5309 102.008 17.9565 102.013C17.8884 102.013 17.8203 102.047 17.561 102.116C17.561 102.616 17.5845 103.171 17.5557 103.724C17.485 105.141 16.7515 105.953 15.3474 105.964C11.1245 105.998 6.89909 106 2.67363 105.956C1.29047 105.943 0.512443 105.081 0.509824 103.674C0.496725 94.7623 0.496725 85.8477 0.509824 76.9358C0.509824 75.3587 1.40573 74.6069 3.19756 74.6043C9.17554 74.5964 15.1561 74.5755 21.1341 74.6252C22.1296 74.6331 22.7295 74.3423 23.3503 73.5486C26.0695 70.0619 29.4383 67.4056 33.9336 66.7873C39.8042 65.9779 44.8679 67.7802 49.0122 72.0816C49.4601 72.5479 50.0417 72.9749 50.6442 73.1845C55.4041 74.8374 60.1718 76.4668 64.9604 78.0334C68.2874 79.1205 70.9122 80.9543 72.243 84.4331C74.7107 83.7599 77.1496 83.105 79.5832 82.4317C82.4072 81.6511 85.2285 80.8573 88.0498 80.061C89.8338 79.558 91.6413 79.3799 93.4593 79.7964C99.4688 81.1717 101.965 88.3704 98.1066 93.2062C96.7627 94.888 95.0652 96.114 93.0245 96.8449C81.8256 100.863 70.6293 104.895 59.4278 108.908C54.8277 110.556 50.2355 110.388 45.8582 108.295C41.1219 106.029 36.5008 103.52 31.8589 101.06C29.9649 100.057 28.0159 99.3571 25.8075 99.2602L25.8023 99.2628ZM25.6975 94.9378C29.2261 95.0898 32.2518 96.3472 35.2068 97.9818C39.2069 100.198 43.2883 102.268 47.3854 104.303C50.0862 105.647 52.994 106.029 55.9568 105.416C57.2404 105.152 58.4769 104.63 59.7186 104.188C70.3176 100.4 80.914 96.6013 91.513 92.8107C92.9014 92.3156 94.0776 91.5297 94.9132 90.3116C96.6553 87.7653 95.1673 84.3362 92.1129 83.9459C91.251 83.8359 90.3106 83.9275 89.4697 84.1554C84.0523 85.6146 78.648 87.1235 73.2516 88.6638C72.8665 88.7738 72.4211 89.2035 72.2849 89.5833C70.6162 94.2724 66.1262 96.5436 61.3506 95.0478C57.9399 93.979 54.5396 92.8867 51.1315 91.8074C48.3049 90.9115 45.4704 90.0365 42.6491 89.1222C41.5148 88.7555 40.9673 87.9303 41.0407 86.872C41.1088 85.8975 41.7742 85.0802 42.7591 84.9518C43.2647 84.8863 43.8253 85.0042 44.3257 85.1588C47.5007 86.1411 50.6652 87.1549 53.8323 88.1582C56.8291 89.1092 59.8181 90.0863 62.8255 91.011C64.8111 91.6214 66.7575 90.8695 67.7582 89.1904C68.7694 87.4928 68.552 85.4024 66.9802 84.014C66.1236 83.2569 65.0338 82.6675 63.9519 82.285C58.7284 80.4434 53.4629 78.7223 48.2394 76.8886C47.5164 76.6345 46.8064 76.0975 46.2982 75.5107C43.0316 71.7489 38.8978 70.2557 34.0829 71.1464C30.439 71.8196 27.919 74.3292 25.928 77.3418C25.7159 77.6614 25.7159 78.1591 25.7132 78.573C25.6975 82.2955 25.7054 86.018 25.7054 89.7405C25.7054 91.4197 25.7054 93.0962 25.7054 94.9378H25.6975ZM13.1809 101.655V78.9712H4.87412V101.655H13.1809ZM17.6684 78.9529V97.6439H21.3227V78.9529H17.6684Z" fill="#0C3A30"/>
<path d="M49.0829 36.2058C48.703 39.5773 45.2582 42.417 41.596 42.5008C37.7635 42.5872 34.3134 39.7842 33.6245 36.0225C32.9486 32.3262 35.0705 28.4072 38.4053 27.3279C39.4531 33.2771 44.2706 34.7965 49.0803 36.2058H49.0829Z" fill="#FFDB1E"/>
<path d="M54.5396 58.9468C52.9757 60.5107 51.3987 62.0877 49.9055 63.5809C48.4332 62.1087 46.8536 60.5343 45.2845 58.9678C47.6997 57.1707 52.1138 57.1655 54.5396 58.9468Z" fill="#FFDB1E"/>
<path d="M12.1226 26.0784C12.3636 25.8217 12.5784 25.5833 12.8011 25.358C14.1554 23.9879 15.5098 22.6179 16.872 21.2399C18.8184 23.7338 18.8184 28.3705 16.8825 30.909C15.5176 29.5337 14.1581 28.1662 12.8037 26.7962C12.581 26.5709 12.3662 26.3351 12.1226 26.0784Z" fill="#FFDB1E"/>
<path d="M32.7626 5.24449C34.5073 6.98916 36.0634 8.54522 37.6142 10.096C35.4504 11.8983 30.7927 11.9245 28.0788 9.95982C28.917 9.16345 29.7501 8.409 30.5412 7.61263C31.3166 6.83198 32.0501 6.01204 32.7653 5.24449H32.7626Z" fill="#FFDB1E"/>
<path d="M64.6644 43.6403C65.8145 44.2586 66.9618 44.8742 68.18 45.5291C67.3836 46.2416 66.603 46.9384 65.6835 47.761C65.2801 46.4826 64.8452 45.1152 64.4103 43.7451C64.4942 43.7111 64.578 43.6744 64.6644 43.6403Z" fill="#FFDB1E"/>
<path d="M77.6525 28.7713C77.6054 29.9502 76.6518 30.8277 75.4625 30.7911C74.2968 30.7544 73.3563 29.7773 73.3852 28.6299C73.414 27.4301 74.4435 26.4949 75.659 26.5604C76.8378 26.6232 77.6997 27.5794 77.6525 28.774V28.7713Z" fill="#0C3A30"/>
<path d="M35.4242 86.7489C34.2742 86.72 33.3416 85.7429 33.3494 84.5772C33.3573 83.3512 34.3397 82.4212 35.5683 82.4736C36.7209 82.5234 37.664 83.5372 37.6142 84.6715C37.5644 85.8084 36.5428 86.7777 35.4216 86.7489H35.4242Z" fill="#0C3A30"/>
</svg>
