<svg width="111" height="111" viewBox="0 0 111 111" fill="none" xmlns="http://www.w3.org/2000/svg">
<path d="M70.7075 110.014C69.4765 109.424 69.0507 108.461 69.1708 107.124C69.3291 105.35 69.3727 103.564 69.4737 101.642H68.2154C60.9793 101.642 53.7432 101.642 46.5071 101.642C46.2177 101.642 45.9284 101.65 45.6391 101.636C44.3425 101.58 43.3899 100.666 43.3953 99.49C43.3981 98.3198 44.3534 97.376 45.6554 97.3571C47.9346 97.3248 50.2138 97.3463 52.493 97.3463C57.813 97.3463 63.1302 97.3463 68.4501 97.3463H69.6566C70.1534 93.8921 70.1698 90.7102 67.1973 88.2241C65.7397 87.0052 64.4213 85.6031 63.1384 84.1955C59.7401 80.4608 57.9331 76.0602 57.8894 71.0231C57.8648 68.1999 57.8512 65.3605 58.1378 62.5588C58.4162 59.8596 59.7755 57.5379 61.7108 55.6018C63.3131 53.9974 64.9508 52.428 66.6104 50.8829C67.1536 50.3787 67.3911 49.861 67.3856 49.1113C67.3529 44.6028 67.3692 40.0943 67.3692 35.4266C67.0253 35.4266 66.6077 35.4266 66.1901 35.4266C60.2914 35.4266 54.3955 35.4293 48.4969 35.4266C43.7502 35.4239 40.7804 32.4847 40.7749 27.7847C40.7695 21.6259 40.7558 15.4671 40.7859 9.30832C40.7941 7.67424 40.9442 6.04286 41.0288 4.35754H4.93557V97.349C5.345 97.349 5.7326 97.349 6.1202 97.349C12.6685 97.349 19.2195 97.3436 25.7677 97.3544C27.5993 97.3571 28.6911 98.6541 28.1834 100.164C27.8422 101.173 27.0697 101.645 25.7049 101.647C18.8673 101.65 12.027 101.647 5.18942 101.647C4.3569 101.647 3.52437 101.672 2.69185 101.636C1.40895 101.585 0.620102 100.806 0.532756 99.5494C0.513649 99.2635 0.519108 98.9777 0.519108 98.6892C0.519108 66.7842 0.524566 34.8819 0.5 2.97694C0.5 1.63678 0.772958 0.579747 2.09407 0C34.8818 0 67.6668 0 100.454 0C100.509 0.0458405 100.553 0.115949 100.616 0.134825C104.614 1.39948 106.304 3.67803 106.304 7.81985C106.304 14.4802 106.307 21.1406 106.304 27.8009C106.301 32.4955 103.329 35.4212 98.5656 35.4239C93.2102 35.4266 87.8547 35.4239 82.4993 35.4239H81.4457V50.1765C85.712 49.4457 86.8666 49.799 89.9565 52.73C91.6625 51.7404 93.4995 51.3602 95.4593 51.8402C97.4082 52.3175 98.8686 53.4851 99.9195 55.1272C100.105 55.0706 100.212 55.0463 100.31 55.0059C105.586 52.8029 110.475 55.9739 110.497 61.6258C110.51 64.8481 110.477 68.0704 110.494 71.2954C110.51 74.6526 109.85 77.8749 108.176 80.7871C106.732 83.303 105.087 85.7109 103.432 88.1C102.338 89.6802 101.822 91.3574 101.939 93.2503C102.215 97.7535 102.45 102.259 102.791 106.754C102.9 108.173 102.635 109.286 101.328 110.012H100.026C99.2398 109.532 98.5547 108.998 98.4919 107.968C98.1944 103.074 97.8504 98.1796 97.5911 93.2827C97.4465 90.5619 98.1534 88.0542 99.7748 85.7999C101.011 84.0823 102.27 82.3565 103.288 80.5121C104.281 78.7081 105.518 76.7963 105.698 74.8467C106.132 70.1602 106.042 65.4225 106.08 60.7036C106.088 59.6601 105.081 58.8161 104.027 58.6327C102.33 58.3361 101.118 59.2879 100.834 61.1404C100.613 62.575 99.7093 63.4244 98.5028 63.33C97.2608 63.2329 96.5184 62.3242 96.4911 60.8573C96.4747 60.0349 96.5321 59.2043 96.4474 58.39C96.2782 56.8018 94.9462 55.7636 93.4449 55.9793C92.0746 56.1762 91.3295 57.0283 91.1111 58.6489C90.9391 59.9162 90.0548 60.7387 88.8892 60.709C87.68 60.6793 86.8175 59.7598 86.7765 58.4412C86.7574 57.8318 86.8011 57.2224 86.7574 56.6157C86.6592 55.2108 85.6055 54.1835 84.2489 54.1295C82.8378 54.0729 81.7759 54.9331 81.5112 56.3514C81.4511 56.6669 81.4293 56.9932 81.3474 57.3033C81.0963 58.2363 80.2283 58.8808 79.262 58.8727C78.2493 58.8646 77.3759 58.1662 77.193 57.1604C77.1111 56.7074 77.1111 56.2355 77.1111 55.7717C77.1056 49.8637 77.1056 43.9556 77.1029 38.0476C77.1029 35.7637 76.1557 34.5233 74.4143 34.5152C72.6564 34.5044 71.7175 35.7205 71.7175 38.0206C71.7147 47.2939 71.7175 56.5672 71.7065 65.8431C71.7065 66.377 71.7065 66.9298 71.5755 67.4421C71.2561 68.7041 69.8395 69.3297 68.6467 68.7877C67.6558 68.3374 67.3638 67.5123 67.3665 66.5038C67.3774 63.4972 67.372 60.4879 67.3665 57.4813C67.3665 57.1226 67.3337 56.7667 67.3174 56.4081C67.1836 56.338 67.0499 56.2679 66.9161 56.1978C66.3593 56.8557 65.8489 57.5595 65.232 58.1608C63.2203 60.1212 62.1694 62.4563 62.2021 65.2634C62.224 67.0889 62.194 68.9144 62.2103 70.7427C62.2513 75.1433 63.8754 78.8915 67.0062 82.0059C68.2072 83.1978 69.3864 84.4139 70.6202 85.568C73.2597 88.038 74.4306 91.0554 74.2177 94.6336C73.9721 98.7782 73.7155 102.925 73.5572 107.073C73.5081 108.362 73.1505 109.357 72.0095 110.02H70.7075V110.014ZM73.5299 4.29553C65.2074 4.29553 56.8849 4.29553 48.5624 4.29553C46.1304 4.29553 45.1177 5.28514 45.1177 7.66615C45.115 14.3616 45.1122 21.0597 45.1177 27.7551C45.1177 30.1253 46.1495 31.1257 48.5761 31.1257C55.6675 31.1257 62.7617 31.1338 69.8531 31.1122C70.4073 31.1122 70.9859 30.9612 71.51 30.7644C73.4616 30.0336 75.3805 30.0093 77.3213 30.8102C77.7717 30.9963 78.2875 31.1122 78.7734 31.1149C85.3599 31.1338 91.9436 31.1311 98.5301 31.1257C100.938 31.1257 101.958 30.1118 101.961 27.7308C101.964 21.0704 101.961 14.4101 101.961 7.74974C101.961 5.26626 100.989 4.29553 98.4974 4.29553C90.1749 4.29553 81.8524 4.29553 73.5299 4.29553Z" fill="#0C3A30"/>
<path d="M23.2674 74.7739C21.728 76.3622 20.3413 77.7751 18.9847 79.2151C18.7582 79.4551 18.5398 79.8083 18.5262 80.1184C18.4716 81.2941 18.5043 82.4724 18.5043 83.791C19.0093 83.791 19.4296 83.791 19.8527 83.791C31.3907 83.791 42.9313 83.791 54.4693 83.791C54.8296 83.791 55.1953 83.7748 55.5529 83.8072C56.6911 83.9151 57.4936 84.7564 57.5318 85.8538C57.5701 86.9567 56.8331 87.8654 55.7139 88.0488C55.3618 88.1081 54.9933 88.0865 54.6303 88.0865C42.1152 88.0865 29.6001 88.0865 17.0849 88.0865C14.8549 88.0865 14.1588 87.4097 14.1588 85.2121C14.1534 76.6938 14.1588 68.1729 14.1588 59.6547C14.1588 59.3688 14.1588 59.0803 14.1861 58.7972C14.309 57.6107 15.1933 56.7748 16.3125 56.7694C17.4398 56.764 18.3214 57.5757 18.4634 58.7783C18.5043 59.1315 18.4989 59.4929 18.4989 59.8515C18.4989 63.9313 18.4989 68.0138 18.4989 72.0936C18.4989 72.4846 18.4989 72.8729 18.4989 73.6171C19.5689 72.579 20.4232 71.7512 21.2748 70.9179C22.8716 69.3594 23.8133 69.3513 25.3992 70.9368C26.3901 71.9264 27.3509 72.9457 28.3772 74.0054C31.3033 71.1094 34.112 68.3293 36.9181 65.5492C39.2983 63.1925 39.8305 63.1898 42.1861 65.5249C42.9777 66.3096 43.7529 67.1078 44.7137 68.0812C45.9148 66.8408 47.0312 65.6382 48.2049 64.4922C49.0156 63.6994 50.0064 63.6131 50.8826 64.1416C51.7042 64.6378 52.1273 65.6355 51.8052 66.5604C51.6578 66.981 51.3685 67.3855 51.0491 67.7064C49.5342 69.2461 48.0002 70.7642 46.4525 72.2689C45.2378 73.4499 44.0777 73.4446 42.8713 72.2581C41.7958 71.2011 40.7477 70.1171 39.4102 68.7634C39.0007 69.3189 38.7141 69.8259 38.3183 70.2249C35.6761 72.8729 33.0148 75.5047 30.348 78.1311C28.9668 79.4928 27.9132 79.4928 26.532 78.123C25.4866 77.0875 24.4766 76.0143 23.2702 74.7739H23.2674Z" fill="#0C3A30"/>
<path d="M36.2302 47.4934C29.7228 47.4934 23.2155 47.488 16.7082 47.5015C15.8184 47.5015 15.0568 47.2966 14.5355 46.547C13.6456 45.2688 14.4154 43.5134 15.9903 43.2357C16.307 43.179 16.64 43.1979 16.9648 43.1979C29.7993 43.1979 42.631 43.1979 55.4655 43.1979C55.6811 43.1979 55.8995 43.1898 56.1151 43.2033C57.4363 43.2788 58.337 44.166 58.3261 45.3713C58.3152 46.582 57.4117 47.4719 56.0742 47.4854C53.29 47.5123 50.5059 47.4961 47.7244 47.4961C43.8921 47.4961 40.0598 47.4961 36.2274 47.4961L36.2302 47.4934Z" fill="#0C3A30"/>
<path d="M23.483 21.9306C21.2066 21.9306 18.9274 21.9387 16.6509 21.9279C15.1278 21.9198 14.1997 21.1136 14.1833 19.822C14.167 18.5276 15.1032 17.6459 16.5936 17.6405C21.1492 17.6243 25.7049 17.6243 30.2606 17.6405C31.7782 17.6459 32.7145 18.4791 32.7281 19.7653C32.7445 21.1109 31.8137 21.9225 30.2087 21.9279C27.9677 21.9387 25.7267 21.9279 23.483 21.9279V21.9306Z" fill="#0C3A30"/>
<path d="M23.4203 30.4408C25.6968 30.4408 27.9732 30.4273 30.2497 30.4462C31.7974 30.4597 32.709 31.2551 32.7254 32.544C32.7418 33.8276 31.8192 34.7174 30.3125 34.7282C25.7241 34.7552 21.1329 34.7552 16.5445 34.7282C15.0405 34.7174 14.1397 33.8114 14.1807 32.5036C14.2189 31.2551 15.1142 30.465 16.5881 30.4516C18.8646 30.43 21.1411 30.4462 23.4176 30.4462L23.4203 30.4408Z" fill="#0C3A30"/>
<path d="M37.9962 99.4604C38.0181 100.633 37.0982 101.599 35.9272 101.634C34.7125 101.672 33.7053 100.695 33.7108 99.49C33.7162 98.3521 34.6852 97.3841 35.8535 97.3571C37.0081 97.3301 37.9744 98.2793 37.9989 99.4604H37.9962Z" fill="#0C3A30"/>
<path d="M56.7321 11.1284H61.7763C64.2166 11.1284 65.6905 12.3904 65.6905 14.4451C65.6905 15.7233 65.1009 16.6617 64.0037 17.1309C65.1992 17.5192 65.8379 18.4414 65.8379 19.8004C65.8379 21.9198 64.3967 23.1009 61.7763 23.1009H56.7321V11.1284ZM59.3852 13.4259V16.0307H61.4979C62.4478 16.0307 62.9719 15.5615 62.9719 14.704C62.9719 13.8465 62.4642 13.4259 61.4979 13.4259H59.3852ZM59.3852 18.231V20.8035H61.6289C62.6116 20.8035 63.1193 20.3667 63.1193 19.4768C63.1193 18.6679 62.5952 18.231 61.6289 18.231H59.3852Z" fill="#FFDB1E"/>
<path d="M67.5412 11.1284H70.1944V18.4252C70.1944 19.9298 71.0296 20.7549 72.52 20.7549C74.0103 20.7549 74.8783 19.8975 74.8783 18.4252V11.1284H77.5315V18.6031C77.5315 21.4506 75.5662 23.2951 72.52 23.2951C69.4737 23.2951 67.5412 21.4668 67.5412 18.6031V11.1284Z" fill="#FFDB1E"/>
<path d="M78.8744 11.1284H81.8387L83.8695 15.0114C84.066 15.3835 84.1971 15.6747 84.3281 15.9821C84.4755 15.6909 84.6065 15.3835 84.803 14.9952L86.8338 11.1284H89.7163L85.6219 18.5546V23.1009H82.9688V18.5546L78.8744 11.1284Z" fill="#FFDB1E"/>
</svg>
