<svg width="87" height="114" viewBox="0 0 87 114" fill="none" xmlns="http://www.w3.org/2000/svg">
<path d="M73.477 0.042699C74.7132 0.671172 75.1163 1.6791 75.0659 3.04573C74.9829 5.29875 75.0422 7.55473 75.0422 9.95004C75.475 9.96783 75.8634 10.0004 76.2517 10.0004C78.7686 10.0064 81.2825 9.99747 83.7993 10.0034C85.7055 10.0093 86.4674 10.7801 86.5 12.707C86.5 12.8552 86.5 13.0035 86.5 13.1517C86.5 45.5922 86.5 78.0326 86.497 110.473C86.497 110.95 86.4911 111.44 86.3992 111.905C86.2006 112.937 85.5069 113.491 84.499 113.648C84.1373 113.704 83.7608 113.675 83.3902 113.675C60.6377 113.675 37.8852 113.675 15.1327 113.675C12.607 113.675 11.9756 113.049 11.9756 110.544C11.9756 108.327 11.9756 106.109 11.9756 103.714C11.5279 103.714 11.1396 103.714 10.7512 103.714C8.16026 103.714 5.57225 103.726 2.98128 103.708C1.42196 103.696 0.609687 102.89 0.523717 101.325C0.508894 101.067 0.517789 100.806 0.517789 100.548C0.517789 68.1075 0.523716 35.667 0.5 3.22657C0.5 1.86586 0.805344 0.774929 2.00004 0.0397339H73.4799L73.477 0.042699ZM16.4164 14.4887C16.4164 15.0549 16.4164 15.4966 16.4164 15.9354C16.4164 28.8813 16.4164 41.8273 16.4164 54.7732C16.4164 55.0697 16.4223 55.3661 16.4164 55.6596C16.3719 57.0974 15.4915 58.0846 14.2345 58.1142C12.939 58.1438 12.0111 57.127 11.9815 55.6359C11.9785 55.4521 11.9815 55.2653 11.9815 55.0815C11.9815 41.0624 11.9815 27.0433 11.9815 13.0272C11.9815 10.6467 12.6248 10.0034 15.0023 10.0004C33.0561 10.0004 51.1099 10.0004 69.1636 10.0004C69.6291 10.0004 70.0915 10.0004 70.5392 10.0004V4.55763H5.04754V99.214H11.9726V97.96C11.9726 92.6328 11.9726 87.3085 11.9726 81.9813C11.9726 79.6513 11.9518 77.3212 11.9874 74.9911C12.0082 73.6867 12.9153 72.8122 14.1426 72.7944C15.3729 72.7766 16.2859 73.6215 16.3986 74.911C16.4312 75.2786 16.4104 75.6492 16.4104 76.0198C16.4104 86.6356 16.4104 97.2515 16.4104 107.867C16.4104 108.297 16.4104 108.727 16.4104 109.166H81.9702V14.4887H16.4104H16.4164Z" fill="#0C3A30"/>
<path d="M49.7818 21.0728C57.4035 21.0728 65.0222 21.0728 72.6439 21.0728C74.8169 21.0728 75.5165 21.7576 75.5165 23.9039C75.5195 33.9269 75.5195 43.9498 75.5165 53.9757C75.5165 56.0331 74.7695 56.7831 72.6973 56.7861C57.4183 56.792 42.1393 56.792 26.8632 56.7861C24.8296 56.7861 24.0173 55.9827 24.0173 53.9757C24.0114 43.9528 24.0114 33.9298 24.0173 23.9039C24.0173 21.7902 24.7584 21.0728 26.9225 21.0728C34.5442 21.0728 42.163 21.0728 49.7847 21.0728H49.7818ZM71.0046 52.2712V25.6144H28.5085V52.2712H71.0046Z" fill="#0C3A30"/>
<path d="M49.9537 63.2872C57.276 63.2872 64.6013 63.2872 71.9236 63.2872C72.2942 63.2872 72.6647 63.2695 73.0323 63.308C74.141 63.4236 74.9563 64.2655 75.0304 65.3387C75.1104 66.4652 74.3752 67.4435 73.2458 67.6717C72.9226 67.7369 72.5847 67.7251 72.2527 67.7251C57.3472 67.7251 42.4417 67.7251 27.5362 67.734C26.5994 67.734 25.6389 67.6243 25.2387 66.7349C24.9541 66.1005 24.8148 65.1282 25.1112 64.5798C25.4314 63.9869 26.2941 63.4681 26.9937 63.3495C28.1795 63.1509 29.4246 63.2902 30.646 63.2902C37.0819 63.2902 43.5178 63.2902 49.9508 63.2902L49.9537 63.2872Z" fill="#0C3A30"/>
<path d="M30.5867 94.8146C30.5867 92.3482 30.6193 90.1781 30.5482 88.0111C30.5393 87.7147 30.059 87.3441 29.7151 87.1633C27.9779 86.2354 26.6024 85.0703 26.3445 82.9507C26.0332 80.4042 27.3732 77.9555 29.7507 76.9446C30.2665 76.7253 30.6134 76.5652 30.6134 75.8833C30.6134 74.6116 31.2418 73.9475 32.2438 73.9535C33.2399 73.9594 33.8239 74.6323 33.9188 75.8922C33.9336 76.0731 33.9455 76.2569 33.9544 76.3784C34.8852 76.8409 35.7923 77.2322 36.6432 77.7273C37.4851 78.2164 37.7993 78.9635 37.3279 79.8914C36.9011 80.7303 36.0265 80.9793 35.0423 80.5702C34.7162 80.4339 34.402 80.2708 33.9217 80.0455C33.9217 81.759 33.8921 83.3005 33.9514 84.8391C33.9603 85.0911 34.3131 85.4498 34.5858 85.5535C37.2627 86.5674 38.9584 88.3609 38.9199 91.3284C38.8784 94.3551 37.3517 96.5103 34.5295 97.6309C33.8269 97.9096 33.9484 98.3572 33.9158 98.8523C33.821 100.302 32.6144 101.206 31.5442 100.506C31.061 100.192 30.7646 99.4155 30.6312 98.7959C30.5126 98.2505 30.3999 98.0489 29.8218 97.874C28.7042 97.539 27.6133 97.0647 26.5846 96.5133C25.7219 96.0479 25.5293 95.0903 25.965 94.3136C26.4275 93.4865 27.3346 93.2345 28.2596 93.6851C28.9681 94.029 29.6736 94.3759 30.5867 94.8205V94.8146ZM33.981 94.0794C35.1994 93.3798 35.7538 92.2592 35.5641 90.9371C35.4307 90.0003 34.9445 89.357 33.981 89.0042V94.0794ZM30.4948 83.6177V80.4398C29.3475 81.6552 29.3564 82.8292 30.4948 83.6177Z" fill="#0C3A30"/>
<path d="M60.3917 89.526C56.3629 89.526 52.3372 89.5319 48.3084 89.526C46.6424 89.526 45.6759 88.7315 45.6493 87.3797C45.6196 85.9804 46.6216 85.097 48.3143 85.094C56.3333 85.0851 64.3493 85.0822 72.3683 85.094C74.4434 85.097 75.6351 86.7215 74.7873 88.3402C74.2981 89.274 73.474 89.5378 72.472 89.5319C68.4462 89.5141 64.4175 89.526 60.3887 89.526H60.3917Z" fill="#FFDB1E"/>
<path d="M60.2613 78.6256C56.2325 78.6256 52.2067 78.6137 48.178 78.6344C47.0663 78.6404 46.2066 78.255 45.7856 77.2056C45.2165 75.7856 46.1977 74.3092 47.7807 74.2085C48.7739 74.1432 49.7759 74.1907 50.7719 74.1907C57.7918 74.1907 64.8147 74.1907 71.8347 74.1907C72.1311 74.1907 72.4276 74.1818 72.721 74.1936C74.0847 74.2589 75.0156 75.1452 75.0333 76.3844C75.0511 77.6858 74.1173 78.6137 72.6766 78.6196C68.5381 78.6404 64.3997 78.6256 60.2613 78.6285V78.6256Z" fill="#FFDB1E"/>
<path d="M60.2939 100.459C56.4519 100.459 52.6099 100.459 48.7679 100.456C48.2906 100.456 47.8015 100.456 47.3331 100.367C46.3548 100.18 45.6789 99.3177 45.6493 98.3068C45.6196 97.287 46.2362 96.3858 47.2027 96.1487C47.6622 96.036 48.1543 96.0242 48.6316 96.0242C56.4252 96.0182 64.2218 96.0182 72.0155 96.0242C72.4572 96.0242 72.9078 96.0301 73.3377 96.119C74.3693 96.3325 75.0511 97.2366 75.0333 98.2831C75.0156 99.3266 74.2952 100.201 73.2547 100.379C72.8218 100.453 72.3712 100.453 71.9295 100.453C68.052 100.459 64.1714 100.456 60.2939 100.456V100.459Z" fill="#FFDB1E"/>
<path d="M16.3986 65.4484C16.4253 66.6223 15.4381 67.6717 14.2671 67.7162C13.0932 67.7607 12.0378 66.7853 11.9845 65.6144C11.9311 64.3633 12.9183 63.311 14.1545 63.3021C15.3433 63.2932 16.3719 64.2774 16.3957 65.4513L16.3986 65.4484Z" fill="#0C3A30"/>
<path d="M51.9458 43.5111H57.2552C57.2552 43.0694 57.2552 42.6751 57.2552 42.2808C57.2552 38.6197 57.2552 34.9615 57.2552 31.3003C57.2552 29.4357 58.0082 28.4604 59.4371 28.4455C60.9016 28.4307 61.6901 29.4475 61.6931 31.3656C61.6931 34.9882 61.6931 38.6108 61.6931 42.2364V43.4666C62.1555 43.5467 62.5557 43.5763 62.9322 43.686C63.952 43.9854 64.6161 44.9459 64.5331 45.9449C64.4441 47.0151 63.617 47.863 62.5261 47.9845C62.3067 48.0082 62.0814 48.0023 61.8621 48.0023C53.5793 48.0023 45.2965 48.0023 37.0107 48.0023C36.7883 48.0023 36.566 48.0082 36.3466 47.9845C35.1875 47.8689 34.3575 47.0033 34.316 45.8738C34.2745 44.7473 35.0363 43.7957 36.1806 43.6089C36.649 43.5318 37.1322 43.5526 37.7577 43.523C37.7577 41.6346 37.7577 39.761 37.7577 37.8904C37.7577 36.8351 38.1698 36.005 39.1807 35.5989C40.6422 35.0089 42.1452 36.0346 42.1837 37.677C42.2282 39.592 42.1926 41.5071 42.1926 43.4933H47.505V41.2344C47.505 39.6069 47.505 37.9794 47.505 36.3548C47.505 34.4486 48.2876 33.3844 49.6987 33.3666C51.1217 33.3488 51.9428 34.416 51.9428 36.3014C51.9428 38.6641 51.9428 41.0298 51.9428 43.517L51.9458 43.5111Z" fill="#0C3A30"/>
</svg>
