<svg width="111" height="111" viewBox="0 0 111 111" fill="none" xmlns="http://www.w3.org/2000/svg">
<path d="M54.844 40.4304H53.8643C48.7568 40.4304 44.6146 44.5725 44.6146 49.6801V62.9775C44.6146 68.085 48.7568 72.2272 53.8643 72.2272H54.844C59.9515 72.2272 64.0937 68.085 64.0937 62.9775V49.6801C64.0937 44.5725 59.9515 40.4304 54.844 40.4304ZM59.7969 62.9775C59.7969 65.7074 57.5739 67.9304 54.844 67.9304H53.8643C51.1344 67.9304 48.9114 65.7074 48.9114 62.9775V49.6801C48.9114 46.9502 51.1344 44.7272 53.8643 44.7272H54.844C57.5739 44.7272 59.7969 46.9502 59.7969 49.6801V62.9775Z" fill="#FFDB1E"/>
<path d="M60.2266 0.0397339C61.0143 0.0397339 61.8021 0.0397339 62.5898 0.0397339C62.7188 0.0970256 62.8448 0.174369 62.9794 0.211608C66.4513 1.15406 68.3706 3.65197 68.3906 7.26135C68.3906 7.70822 68.3906 8.15223 68.3906 8.63348C70.2812 8.63348 72 8.59338 73.7159 8.65067C74.7099 8.68505 75.7268 8.76239 76.6836 9.01447C81.5706 10.3007 84.7073 14.4572 84.713 19.6392C84.7302 30.7395 84.7188 41.8397 84.7188 52.94V54.2061C85.0797 54.272 85.3203 54.335 85.5667 54.3608C96.9677 55.5897 106.464 63.6507 109.474 74.7223C109.921 76.3694 110.165 78.071 110.5 79.7496V84.4762C110.434 84.7512 110.345 85.0233 110.305 85.3012C108.601 96.7538 102.327 104.537 91.4706 108.524C89.388 109.289 87.1164 109.55 84.9336 110.043H80.207C79.9693 109.98 79.7315 109.891 79.4909 109.856C68.6656 108.361 61.0974 102.557 56.6974 92.5916C55.7721 90.4976 55.8237 90.4746 53.4776 90.4746C39.4898 90.4746 25.4992 90.4832 11.5115 90.4718C6.60156 90.4689 2.53958 87.5757 1.04714 83.0725C0.846616 82.471 0.683333 81.8608 0.5 81.2535C0.5 60.1272 0.5 39.0009 0.5 17.8746C0.574479 17.6455 0.66901 17.4192 0.723437 17.1843C1.43385 14.102 3.12682 11.7272 5.84531 10.1087C7.57266 9.08036 9.46042 8.62203 11.4685 8.63348C13.2388 8.64208 15.0091 8.63348 16.831 8.63348C16.831 7.94598 16.8224 7.41317 16.831 6.88036C16.8854 3.87255 18.7102 1.3689 21.549 0.394942C21.844 0.294681 22.1247 0.157182 22.4112 0.0397339C23.199 0.0397339 23.9867 0.0397339 24.7745 0.0397339C24.9034 0.0970256 25.0294 0.174369 25.1641 0.211608C28.6302 1.15119 30.5552 3.65197 30.5753 7.24416C30.5753 7.69104 30.5753 8.13791 30.5753 8.559H54.6378C54.6378 7.98609 54.632 7.49052 54.6378 6.99494C54.6779 3.86968 56.5169 1.33739 59.456 0.357703C59.7167 0.271765 59.9659 0.148589 60.2208 0.0425991L60.2266 0.0397339ZM68.3992 12.9934C68.4794 15.0874 68.3276 17.1012 66.9755 18.8085C65.6263 20.51 63.876 21.4239 61.7133 21.5127C59.9974 21.5814 58.4706 21.0257 57.15 19.9429C54.9557 18.141 54.443 15.6861 54.6521 13.0077H30.6411C30.2057 18.5134 28.275 21.1173 24.3706 21.4955C22.7063 21.6559 21.1708 21.2462 19.7987 20.2895C17.2349 18.5048 16.619 15.8751 16.8339 12.9332C14.8315 12.9332 13.0068 12.9074 11.182 12.939C7.93359 12.9934 5.1349 15.3366 4.89141 18.5564C4.67083 21.5012 4.84557 24.4746 4.84557 27.5397H6.05443C14.7542 27.5397 23.4539 27.5397 32.1536 27.5397C32.5117 27.5397 32.8727 27.5197 33.225 27.5684C34.2734 27.7145 35.0497 28.591 35.0841 29.6166C35.1185 30.6822 34.3393 31.6332 33.2536 31.7994C32.8669 31.8567 32.4688 31.8337 32.0734 31.8337C23.4081 31.8337 14.7456 31.8337 6.08021 31.8337H4.79688C4.79688 32.2778 4.79688 32.5614 4.79688 32.8449C4.79688 48.3481 4.79401 63.8483 4.79688 79.3515C4.79688 83.465 7.54401 86.1692 11.7034 86.172C25.7026 86.1749 39.7018 86.172 53.6982 86.172H54.9271C54.2682 81.5171 54.7695 77.1228 56.1932 72.8403C55.9898 72.7772 59.7969 63.6306 64.6667 60.4796C69.3044 56.727 74.6211 54.7676 80.3617 54.2405V31.8337H79.1471C70.4818 31.8337 61.8193 31.8337 53.1539 31.8337C52.7615 31.8337 52.3604 31.8567 51.9737 31.7994C50.8852 31.6361 50.106 30.6936 50.1346 29.6252C50.1633 28.5968 50.9367 27.7202 51.9852 27.5684C52.3375 27.5168 52.6984 27.5369 53.0565 27.5369C61.7563 27.5369 70.456 27.5369 79.1557 27.5369H80.4162C80.4162 24.678 80.4448 21.9939 80.4076 19.3098C80.3646 16.0957 78.0958 13.3858 74.8961 13.0335C72.7849 12.8015 70.6279 12.9905 68.3935 12.9905L68.3992 12.9934ZM82.6419 58.4772C69.6109 58.4457 58.9747 69.016 58.9375 82.0356C58.9003 95.058 69.4849 105.708 82.4958 105.74C95.5211 105.774 106.169 95.1897 106.2 82.1788C106.232 69.1507 95.6529 58.5087 82.6391 58.4772H82.6419ZM26.2812 10.8363C26.2812 9.58739 26.2984 8.33557 26.2755 7.08661C26.2469 5.48817 25.187 4.36239 23.7346 4.34234C22.2823 4.32229 21.1536 5.45093 21.1365 7.02645C21.1078 9.52437 21.1078 12.0252 21.1365 14.5259C21.1536 16.1043 22.2737 17.233 23.7289 17.2186C25.1812 17.2043 26.2469 16.0757 26.2784 14.4801C26.3013 13.2655 26.2841 12.0509 26.2841 10.8392L26.2812 10.8363ZM64.0938 10.8163C64.0938 9.60171 64.1052 8.38713 64.0909 7.17541C64.068 5.49963 63.0167 4.35093 61.5271 4.3452C60.0375 4.33947 58.9547 5.49103 58.9432 7.15536C58.926 9.58453 58.9232 12.0108 58.9432 14.44C58.9576 16.0929 60.0661 17.2473 61.5586 17.2186C63.0081 17.1929 64.0622 16.0613 64.088 14.46C64.1081 13.2455 64.0909 12.0309 64.0938 10.8192V10.8163Z" fill="#0C3A30"/>
<path d="M35.425 56.896C36.9404 58.3483 37.9917 60.0384 38.3927 62.1153C39.3151 66.8962 36.0925 71.6916 31.2914 72.6197C26.413 73.5621 21.5833 70.3309 20.6925 65.5212C20.5951 64.997 20.512 64.4585 20.5091 63.9257C20.5005 62.6051 21.3542 61.6856 22.5659 61.6455C23.8063 61.6054 24.6628 62.4189 24.7888 63.7567C25.0409 66.4179 26.5505 68.1108 28.974 68.4431C31.4518 68.784 33.8753 66.9335 34.2133 64.4413C34.5656 61.846 32.7667 59.434 30.2258 59.0989C29.8018 59.0416 29.3664 59.0215 28.9539 58.9155C28.0172 58.6749 27.3698 57.7983 27.3784 56.8587C27.3899 55.8705 28.106 55.0025 29.0943 54.8048C29.481 54.7275 29.8763 54.7103 30.263 54.6473C32.5318 54.2863 34.1932 52.3957 34.2391 50.1327C34.2849 47.8353 32.7008 45.8072 30.5294 45.3804C28.2034 44.922 25.9948 46.1051 25.1383 48.2707C25.0609 48.4684 25.0094 48.6775 24.9464 48.8837C24.4938 50.3819 23.4511 51.0723 22.1735 50.7199C20.9417 50.3819 20.4117 49.1845 20.8156 47.6692C21.7609 44.1486 24.8547 41.433 28.3409 41.0663C32.2425 40.6538 35.7115 42.4384 37.4875 45.7671C39.2435 49.0585 38.7938 53.0546 36.3445 55.8876C36.0638 56.2113 35.7688 56.5179 35.425 56.8931V56.896Z" fill="#FFDB1E"/>
<path d="M44.7492 29.7283C44.7263 30.9113 43.6951 31.8824 42.5148 31.828C41.3747 31.7765 40.4466 30.7882 40.4695 29.6481C40.4924 28.465 41.5237 27.4939 42.701 27.5483C43.844 27.5999 44.7721 28.5882 44.7492 29.7283Z" fill="#0C3A30"/>
<path d="M84.7847 79.4403C85.1456 79.5806 85.5094 79.7239 85.8732 79.8614C89.7232 81.3166 91.8573 84.0551 91.9862 87.7103C92.1151 91.4114 89.8836 95.1926 86.406 96.6306C85.0568 97.1892 84.544 97.7908 84.6844 99.2202C84.799 100.369 84.037 101.217 83.0458 101.426C81.7195 101.707 80.5365 100.813 80.4362 99.4207C80.3932 98.822 80.4305 98.2147 80.4305 97.5645C78.1932 97.3898 76.231 96.6936 74.4406 95.4991C73.1888 94.6627 72.8221 93.4996 73.4982 92.4054C74.1714 91.3168 75.3688 91.1392 76.6893 91.8239C77.8323 92.414 79.0326 92.8981 80.419 93.5254C80.419 89.6726 80.4305 86.2064 80.3961 82.7403C80.3961 82.5168 80.0867 82.2275 79.8518 82.0871C79.1185 81.646 78.3393 81.2793 77.5974 80.8525C74.8044 79.2426 73.6414 76.7676 74.0396 73.6366C74.455 70.3509 76.2482 68.0449 79.4107 66.8877C79.7115 66.7788 80.0266 66.7043 80.3646 66.6041C80.568 65.4468 80.0466 64.0689 81.244 63.2325C81.6508 62.9489 82.2323 62.7741 82.7307 62.7827C84.1745 62.8028 84.5956 63.6249 84.7589 66.415C86.1711 67.0825 87.5919 67.6496 88.9068 68.4002C90.1557 69.1163 90.3964 70.477 89.6344 71.5283C88.9669 72.4478 87.8612 72.6655 86.7755 72.0926C86.1539 71.766 85.5294 71.4395 84.7875 71.0528V79.4403H84.7847ZM84.7474 92.6374C86.7068 91.672 87.8956 89.5293 87.6464 87.5757C87.4172 85.7796 86.3544 84.5306 84.7474 84.1812V92.6374ZM80.3732 71.1043C78.7547 72.0983 78.1417 73.4132 78.2878 75.0775C78.3966 76.3207 79.2302 76.9595 80.3732 77.3978V71.1072V71.1043Z" fill="#0C3A30"/>
</svg>
