<svg width="111" height="89" viewBox="0 0 111 89" fill="none" xmlns="http://www.w3.org/2000/svg">
<path d="M110.497 54.3564C109.864 55.5166 108.899 55.9664 107.575 55.8776C106.3 55.7916 105.014 55.8604 103.622 55.8604C103.622 57.5907 103.63 59.2264 103.622 60.8622C103.61 62.4034 102.745 63.3918 101.445 63.3717C100.178 63.3517 99.339 62.392 99.3304 60.9052C99.3189 58.6134 99.3161 56.3216 99.3304 54.0298C99.339 52.3998 100.153 51.5833 101.768 51.5661C103.195 51.5518 104.624 51.5633 106.134 51.5633C106.16 51.2023 106.197 50.8929 106.197 50.5864C106.2 44.5705 106.214 38.5545 106.197 32.5386C106.18 26.8206 102.015 22.2599 96.1878 21.5352C90.9052 20.8763 85.574 24.503 84.2103 29.7197C84.0041 30.5075 83.878 31.3411 83.8752 32.1547C83.8465 38.3855 83.858 44.6163 83.8608 50.8471C83.8608 51.0534 83.8809 51.2596 83.8981 51.5661C85.3476 51.5661 86.7342 51.5604 88.1207 51.5661C89.9513 51.5747 90.7305 52.3482 90.7333 54.1845C90.7391 63.5665 90.7333 72.9485 90.7333 82.3305V83.7056H99.3275C99.3275 82.7831 99.3189 81.832 99.3275 80.881C99.3447 79.4027 100.187 78.4402 101.453 78.4287C102.719 78.4173 103.602 79.3827 103.619 80.8437C103.636 82.4193 103.633 83.9949 103.619 85.5705C103.607 87.2693 102.808 88.0829 101.121 88.0886C97.0759 88.1001 93.028 88.0972 88.983 88.0886C87.2269 88.0858 86.4362 87.2865 86.4362 85.5132C86.4305 76.094 86.4362 66.6776 86.4362 57.2584C86.4362 56.8344 86.4362 56.4133 86.4362 55.9234H77.1975V57.224C77.1975 66.5716 77.1975 75.9164 77.1975 85.264C77.1975 87.3839 76.487 88.0886 74.3585 88.0915C70.5628 88.0915 66.767 88.0915 62.9712 88.0915C60.6766 88.0915 60.0091 87.4355 60.0091 85.1752C60.0091 75.8648 60.0091 66.5544 60.0091 57.244V55.9205H50.9852V57.1352C50.9852 66.4828 50.9852 75.8276 50.9852 85.1752C50.9852 87.4355 50.3177 88.0915 48.023 88.0943C44.1557 88.0943 40.2883 88.1001 36.4209 88.0943C34.5846 88.0915 33.7997 87.3123 33.7997 85.4846C33.7939 76.0653 33.7997 66.649 33.7997 57.2297C33.7997 56.8086 33.7997 56.3903 33.7997 55.9177H24.5609C24.5609 56.3273 24.5609 56.7427 24.5609 57.1552C24.5609 66.5029 24.5609 75.8476 24.5609 85.1952C24.5609 87.4097 23.8819 88.0943 21.6904 88.0972C17.7887 88.0972 13.884 88.1029 9.98226 88.0972C8.15456 88.0943 7.37822 87.3123 7.37536 85.4731C7.37249 76.0911 7.37536 66.7091 7.37536 57.3271C7.37536 56.8974 7.37536 56.4706 7.37536 55.869C6.03753 55.869 4.72548 55.8031 3.42203 55.8862C2.09852 55.9721 1.13024 55.5309 0.5 54.365C0.5 46.4154 0.5 38.4629 0.5 30.5132C0.557295 30.3843 0.637507 30.2583 0.66329 30.1208C2.00112 23.191 6.79095 18.5444 13.8153 17.3555C14.0187 17.3211 14.2077 17.2151 14.5257 17.0977C9.75595 15.863 6.92273 12.0557 7.40974 7.70995C7.87955 3.51025 11.3459 0.207217 15.4854 0.012415C19.7768 -0.190981 23.541 2.72532 24.3718 6.86772C24.8474 9.23972 24.3919 11.4226 23.0569 13.4165C21.7277 15.3989 19.8198 16.5534 17.485 17.155C22.4725 17.9084 26.4029 20.3033 29.2619 24.5632C32.0522 20.2775 35.9367 17.8826 40.8755 17.1578C35.1117 15.6825 33.4043 10.9041 33.8627 7.5438C34.4528 3.20946 38.0251 0.0381973 42.2936 0.000955769C46.6766 -0.0391505 50.3034 3.13497 50.9308 7.56099C51.5438 11.8925 48.7765 15.671 44.2874 16.9945C46.1896 17.768 48.4155 18.51 50.4838 19.5613C52.6038 20.6385 54.1393 22.4662 55.5029 24.5231C58.3189 20.2432 62.1834 17.8798 67.3714 17.1836C62.3095 15.7197 59.6023 12.1188 60.0435 7.76725C60.4617 3.62771 63.8564 0.304617 67.9616 0.0210088C72.0983 -0.265464 75.8596 2.40447 76.9053 6.3979C77.5384 8.81001 77.166 11.0903 75.8453 13.193C74.5247 15.2958 72.5595 16.5219 70.1502 17.1664C75.1463 17.8769 78.9736 20.3577 81.7524 24.5517C84.6315 20.2632 88.559 17.9141 93.6869 17.2037C88.3986 15.3645 85.8003 11.7234 86.5251 7.3891C87.2441 3.07768 90.7419 0.0210089 94.9817 0.000955769C99.2072 -0.0162326 102.717 2.94017 103.487 7.18857C103.903 9.48895 103.373 11.5974 102.06 13.5082C100.734 15.439 98.8491 16.5591 96.5402 17.0805C96.6633 17.1808 96.712 17.2495 96.7722 17.2638C97.0157 17.3183 97.2649 17.3498 97.5084 17.4013C103.751 18.6704 107.985 22.2284 109.959 28.3475C110.188 29.0551 110.322 29.7913 110.5 30.5132V54.365L110.497 54.3564ZM4.7885 51.5633C6.22374 51.5633 7.51 51.5633 8.7934 51.5633C10.9878 51.5633 11.6639 52.2451 11.6639 54.4652C11.6639 63.81 11.6639 73.1576 11.6639 82.5024C11.6639 82.9149 11.6639 83.3274 11.6639 83.7399H20.2581C20.2581 83.2673 20.2581 82.849 20.2581 82.4279C20.2581 73.0115 20.2581 63.5923 20.2581 54.1759C20.2581 52.3425 21.0401 51.5719 22.8764 51.5633C24.263 51.5575 25.6495 51.5633 27.0933 51.5633C27.1105 51.251 27.1306 51.0448 27.1306 50.8385C27.1306 44.6077 27.1306 38.3769 27.1248 32.1461C27.1248 31.7536 27.1076 31.3555 27.0446 30.9687C26.1365 25.182 20.9771 21.0911 15.1159 21.5065C9.28614 21.919 4.7971 26.7518 4.78564 32.6474C4.77705 38.5918 4.78564 44.5361 4.78564 50.4804C4.78564 50.7955 4.78564 51.1135 4.78564 51.5633H4.7885ZM53.3142 51.5633C53.3142 44.7166 53.3314 38.0245 53.2913 31.3354C53.2856 30.5304 53.0478 29.7054 52.7957 28.929C51.1886 24.0246 46.0349 20.8075 41.0474 21.5609C35.4068 22.4146 31.4792 26.7175 31.442 32.1977C31.399 38.4256 31.4305 44.6564 31.4334 50.8872C31.4334 51.0906 31.4735 51.294 31.5021 51.5633C32.7712 51.5633 33.983 51.5633 35.1948 51.5633C37.4121 51.5633 38.0882 52.2365 38.0882 54.4395C38.0882 63.7842 38.0882 73.129 38.0882 82.4709V83.7142H46.6824V82.3563C46.6824 73.0115 46.6824 63.6668 46.6824 54.3249C46.6824 52.2766 47.4043 51.5661 49.4726 51.5633C50.7188 51.5633 51.9649 51.5633 53.3085 51.5633H53.3142ZM64.3033 83.717H72.8975V82.362C72.8975 72.9829 72.8975 63.6009 72.8975 54.2217C72.8975 52.3138 73.6538 51.5719 75.576 51.5633C76.8852 51.5575 78.1944 51.5633 79.5065 51.5633C79.5294 51.2739 79.5523 51.1336 79.5523 50.9932C79.5523 44.6908 79.5781 38.3912 79.5236 32.0917C79.5151 31.0031 79.2973 29.8744 78.9536 28.8402C77.3149 23.9243 72.1441 20.7789 67.1537 21.5839C61.5045 22.4948 57.6743 26.7776 57.6457 32.3037C57.6142 38.46 57.6371 44.6192 57.6399 50.7783C57.6399 51.0161 57.6772 51.2567 57.703 51.5661C59.0122 51.5661 60.2583 51.5661 61.5073 51.5661C63.5757 51.569 64.2976 52.2795 64.2976 54.3306C64.2976 63.4605 64.2976 72.5904 64.2976 81.7174C64.2976 82.3591 64.2976 83.0009 64.2976 83.7199L64.3033 83.717ZM20.2552 8.5751C20.2495 6.21456 18.31 4.2866 15.9495 4.29233C13.589 4.29806 11.6639 6.23461 11.6696 8.59802C11.6753 10.9557 13.6147 12.8865 15.9753 12.8808C18.333 12.8751 20.2638 10.9328 20.2581 8.5751H20.2552ZM46.6824 8.61234C46.6938 6.24894 44.7744 4.30665 42.4139 4.29233C40.0505 4.278 38.1082 6.20024 38.0939 8.56078C38.0824 10.9242 40.0018 12.8693 42.3595 12.8837C44.7171 12.8951 46.668 10.97 46.6795 8.61521L46.6824 8.61234ZM72.8947 8.54646C72.8746 6.18878 70.9237 4.27227 68.5603 4.29233C66.2026 4.31238 64.289 6.2604 64.3062 8.62667C64.3262 10.9843 66.2771 12.9037 68.6377 12.8837C70.9925 12.8636 72.9118 10.9099 72.8918 8.54932L72.8947 8.54646ZM95.0734 12.8808C97.4282 12.8579 99.3447 10.9013 99.3218 8.54072C99.2989 6.18305 97.3451 4.26941 94.9817 4.29233C92.6241 4.31524 90.7133 6.26612 90.7333 8.63239C90.7563 10.9901 92.71 12.9066 95.0705 12.8837L95.0734 12.8808Z" fill="#0C3A30"/>
<path d="M103.613 70.9317C103.596 72.1177 102.57 73.0917 101.39 73.043C100.247 72.9972 99.319 72.0146 99.3333 70.8716C99.3505 69.6856 100.373 68.7144 101.556 68.7631C102.699 68.809 103.63 69.7916 103.613 70.9346V70.9317Z" fill="#0C3A30"/>
<path d="M20.2552 8.5751C20.261 10.9328 18.3301 12.8751 15.9725 12.8808C13.6148 12.8865 11.6725 10.9557 11.6668 8.59802C11.661 6.23461 13.5861 4.29805 15.9467 4.29233C18.3072 4.2866 20.2466 6.21456 20.2524 8.5751H20.2552Z" fill="#FFDB1E"/>
<path d="M46.6824 8.61235C46.6709 10.97 44.72 12.8951 42.3623 12.8808C40.0047 12.8693 38.0824 10.9213 38.0968 8.55792C38.1082 6.19738 40.0534 4.27801 42.4168 4.28946C44.7773 4.30379 46.6967 6.24608 46.6852 8.60948L46.6824 8.61235Z" fill="#FFDB1E"/>
<path d="M72.8946 8.54932C72.9146 10.9099 70.9953 12.8636 68.6405 12.8837C66.2799 12.9037 64.3262 10.9843 64.309 8.62667C64.2889 6.26327 66.2054 4.31238 68.5631 4.29233C70.9265 4.27228 72.8774 6.18879 72.8975 8.54646L72.8946 8.54932Z" fill="#FFDB1E"/>
<path d="M95.0706 12.8837C92.71 12.9066 90.7534 10.9901 90.7334 8.6324C90.7104 6.269 92.6241 4.31525 94.9818 4.29233C97.3452 4.26942 99.2989 6.18306 99.3218 8.54073C99.3447 10.9013 97.4282 12.8579 95.0734 12.8808L95.0706 12.8837Z" fill="#FFDB1E"/>
</svg>
