<?xml version="1.0" encoding="utf-8"?>
<!-- Generator: Adobe Illustrator 27.1.1, SVG Export Plug-In . SVG Version: 6.00 Build 0)  -->
<svg version="1.1" id="Layer_1" xmlns="http://www.w3.org/2000/svg" xmlns:xlink="http://www.w3.org/1999/xlink" x="0px" y="0px"
	 viewBox="0 0 153 154" style="enable-background:new 0 0 153 154;" xml:space="preserve">
<style type="text/css">
	.st0{fill:none;stroke:#000000;stroke-width:1.5;}
</style>
<path class="st0" d="M53,104l46.6-46"/>
<path class="st0" d="M68.1,58h31.5v30.7"/>
<path d="M152,79.5c0,19.8-7.8,38.7-21.8,52.7c-14,14-32.9,21.8-52.7,21.8s-38.7-7.8-52.7-21.8C10.8,118.2,3,99.3,3,79.5h1.3
	c0,19.4,7.7,38,21.4,51.8c13.7,13.7,32.4,21.4,51.8,21.4s38-7.7,51.8-21.4c13.7-13.7,21.4-32.4,21.4-51.8H152z"/>
<g>
	<path d="M2.1,57.6l0.5-1.5l5.5,1.9l0-0.1c-0.3-0.5-0.6-0.9-0.9-1.3l-3.1-5l0.6-1.8l3.4,5.9l8.2-2.2l-0.6,1.8l-6.9,1.8l0.9,1.5
		l4.4,1.5l-0.5,1.5L2.1,57.6z"/>
	<path d="M20.1,35.3c3.5,2.3,3.9,5.7,2.1,8.2c-1.8,2.7-5.1,3.1-8.2,1.1c-3.2-2.2-3.9-5.5-2.1-8.2C13.9,33.7,17.2,33.3,20.1,35.3z
		 M15,43.2c2.1,1.4,4.9,1.6,6.2-0.5c1.4-2.1,0.3-4.5-2-6c-2-1.3-4.8-1.7-6.3,0.4C11.6,39.3,12.8,41.7,15,43.2z"/>
	<path d="M30.7,32.9l-7.8-9.3l1.3-1.1l6.9,2.2c1.6,0.5,3,1,4.2,1.6l0,0c-1.2-1.1-2.1-2.2-3.4-3.7l-3.3-3.9l1.1-1l7.8,9.3l-1.2,1
		l-6.9-2.2c-1.5-0.5-3-1-4.3-1.6l0,0c1.1,1.1,2,2.2,3.3,3.7l3.3,4L30.7,32.9z"/>
	<path d="M42.5,11.7l-3.3,1.6l-0.6-1.2l8.1-3.9l0.6,1.2L43.9,11l4.7,9.7l-1.4,0.7L42.5,11.7z"/>
	<path d="M58.8,12.9l-0.4,4l-1.6,0.4l1.3-12.8L60,4.1L66.8,15l-1.6,0.4L63,12L58.8,12.9z M62.4,10.8l-1.9-3.1
		c-0.4-0.7-0.8-1.4-1.1-2l0,0c0,0.7,0,1.5-0.1,2.3l-0.4,3.7L62.4,10.8z"/>
	<path d="M74.9,2.3l1.6,0l-0.2,5.8l0.1,0c0.3-0.5,0.7-0.9,1-1.3l3.8-4.4l1.9,0.1l-4.5,5l4.5,7.1l-1.9-0.1l-3.8-6.1l-1.2,1.3
		l-0.1,4.6l-1.6,0L74.9,2.3z"/>
	<path d="M104.9,7.6l1.4,0.6l-2.4,5.3l0,0c0.5-0.3,1-0.6,1.4-0.8l5.2-2.6l1.8,0.8l-6.1,2.9l1.5,8.3l-1.7-0.8l-1.2-7.1l-1.6,0.7
		l-1.9,4.2l-1.4-0.6L104.9,7.6z"/>
	<path d="M118,24.4l-3.4,2.2l-1.3-1l10.8-6.9l1.5,1.2l-4.3,12.1l-1.3-1l1.4-3.8L118,24.4z M121.9,25.9l1.2-3.5
		c0.3-0.8,0.6-1.5,0.9-2.1l0,0c-0.6,0.5-1.2,0.9-1.8,1.3l-3.1,2L121.9,25.9z"/>
	<path d="M136.9,42.7c1.3-1,2.9-2.3,4.2-3.2l0,0c-1.4,0.5-2.9,0.9-4.6,1.4l-6,1.6l-0.7-1l3.6-4.9c1.1-1.5,2.1-2.8,3-3.9l0,0
		c-1.3,0.8-3,1.9-4.5,2.9l-4.4,2.7l-0.9-1.2l10.4-6.3l1.2,1.6l-3.6,5.1c-0.9,1.3-1.8,2.4-2.6,3.4l0,0c1.2-0.5,2.5-0.9,4.1-1.3l6-1.6
		l1.2,1.6l-9.5,7.6l-0.9-1.2L136.9,42.7z"/>
	<path d="M148.9,52l-11.3,4.5l-0.6-1.5l11.3-4.5L148.9,52z"/>
</g>
</svg>
