<svg width="24" height="24" viewBox="0 0 24 24" fill="none" xmlns="http://www.w3.org/2000/svg">
<g clip-path="url(#clip0_40_12384)">
<path d="M11.8388 14.499C13.4128 14.499 14.6887 13.223 14.6887 11.649C14.6887 10.075 13.4128 8.799 11.8388 8.799C10.2648 8.799 8.98877 10.075 8.98877 11.649C8.98877 13.223 10.2648 14.499 11.8388 14.499Z" stroke="black" stroke-width="1.89999" stroke-linecap="round" stroke-linejoin="round"/>
<path d="M18.8691 14.499C18.7426 14.7855 18.7049 15.1034 18.7608 15.4115C18.8166 15.7197 18.9636 16.0041 19.1826 16.228L19.2396 16.285C19.4162 16.4614 19.5564 16.671 19.652 16.9016C19.7476 17.1323 19.7968 17.3795 19.7968 17.6292C19.7968 17.8789 19.7476 18.1261 19.652 18.3568C19.5564 18.5874 19.4162 18.797 19.2396 18.9734C19.0631 19.1501 18.8536 19.2902 18.6229 19.3859C18.3923 19.4815 18.145 19.5307 17.8953 19.5307C17.6456 19.5307 17.3984 19.4815 17.1677 19.3859C16.9371 19.2902 16.7275 19.1501 16.5511 18.9734L16.4941 18.9164C16.2702 18.6974 15.9858 18.5505 15.6776 18.4946C15.3695 18.4388 15.0516 18.4765 14.7651 18.603C14.4841 18.7234 14.2445 18.9233 14.0757 19.1782C13.9069 19.4331 13.8163 19.7317 13.8151 20.0374V20.1989C13.8151 20.7029 13.6149 21.1861 13.2586 21.5424C12.9023 21.8988 12.419 22.0989 11.9151 22.0989C11.4112 22.0989 10.9279 21.8988 10.5716 21.5424C10.2153 21.1861 10.0151 20.7029 10.0151 20.1989V20.1134C10.0078 19.799 9.90598 19.494 9.723 19.2382C9.54003 18.9824 9.28432 18.7875 8.98912 18.679C8.70259 18.5525 8.38474 18.5148 8.07657 18.5706C7.76839 18.6265 7.48402 18.7734 7.26013 18.9924L7.20313 19.0494C7.02667 19.2261 6.81713 19.3662 6.58647 19.4619C6.35582 19.5575 6.10858 19.6067 5.85889 19.6067C5.6092 19.6067 5.36196 19.5575 5.1313 19.4619C4.90065 19.3662 4.6911 19.2261 4.51464 19.0494C4.33799 18.873 4.19785 18.6634 4.10223 18.4328C4.00662 18.2021 3.9574 17.9549 3.9574 17.7052C3.9574 17.4555 4.00662 17.2083 4.10223 16.9776C4.19785 16.747 4.33799 16.5374 4.51464 16.361L4.57164 16.304C4.79065 16.0801 4.93757 15.7957 4.99345 15.4875C5.04932 15.1794 5.0116 14.8615 4.88514 14.575C4.76472 14.294 4.56476 14.0544 4.30989 13.8856C4.05501 13.7168 3.75635 13.6262 3.45065 13.625H3.28915C2.78524 13.625 2.30197 13.4248 1.94565 13.0685C1.58934 12.7122 1.38916 12.2289 1.38916 11.725C1.38916 11.2211 1.58934 10.7378 1.94565 10.3815C2.30197 10.0252 2.78524 9.82499 3.28915 9.82499H3.37465C3.68909 9.81764 3.99405 9.71586 4.24988 9.53288C4.50571 9.3499 4.70057 9.0942 4.80914 8.799C4.9356 8.51247 4.97332 8.19462 4.91745 7.88645C4.86157 7.57827 4.71465 7.2939 4.49564 7.07001L4.43865 7.01301C4.26199 6.83655 4.12185 6.627 4.02623 6.39635C3.93062 6.16569 3.8814 5.91845 3.8814 5.66877C3.8814 5.41908 3.93062 5.17184 4.02623 4.94118C4.12185 4.71053 4.26199 4.50098 4.43865 4.32452C4.6151 4.14787 4.82465 4.00773 5.05531 3.91211C5.28596 3.81649 5.5332 3.76728 5.78289 3.76728C6.03258 3.76728 6.27982 3.81649 6.51047 3.91211C6.74113 4.00773 6.95067 4.14787 7.12713 4.32452L7.18413 4.38152C7.40803 4.60053 7.69239 4.74745 8.00057 4.80332C8.30874 4.8592 8.62659 4.82148 8.91312 4.69502H8.98912C9.2701 4.5746 9.50974 4.37464 9.67853 4.11977C9.84732 3.86489 9.9379 3.56622 9.93912 3.26053V3.09903C9.93912 2.59512 10.1393 2.11185 10.4956 1.75553C10.8519 1.39921 11.3352 1.19904 11.8391 1.19904C12.343 1.19904 12.8263 1.39921 13.1826 1.75553C13.5389 2.11185 13.7391 2.59512 13.7391 3.09903V3.18453C13.7403 3.49022 13.8309 3.78889 13.9997 4.04377C14.1685 4.29864 14.4081 4.4986 14.6891 4.61902C14.9756 4.74548 15.2935 4.7832 15.6016 4.72732C15.9098 4.67145 16.1942 4.52453 16.4181 4.30552L16.4751 4.24852C16.6515 4.07187 16.8611 3.93173 17.0917 3.83611C17.3224 3.7405 17.5696 3.69128 17.8193 3.69128C18.069 3.69128 18.3163 3.7405 18.5469 3.83611C18.7776 3.93173 18.9871 4.07187 19.1636 4.24852C19.3402 4.42498 19.4804 4.63453 19.576 4.86518C19.6716 5.09584 19.7208 5.34308 19.7208 5.59277C19.7208 5.84245 19.6716 6.08969 19.576 6.32035C19.4804 6.551 19.3402 6.76055 19.1636 6.93701L19.1066 6.99401C18.8876 7.2179 18.7406 7.50227 18.6848 7.81045C18.6289 8.11862 18.6666 8.43647 18.7931 8.723V8.799C18.9135 9.07998 19.1135 9.31961 19.3683 9.4884C19.6232 9.6572 19.9219 9.74778 20.2276 9.749H20.3891C20.893 9.749 21.3762 9.94917 21.7326 10.3055C22.0889 10.6618 22.2891 11.1451 22.2891 11.649C22.2891 12.1529 22.0889 12.6362 21.7326 12.9925C21.3762 13.3488 20.893 13.549 20.3891 13.549H20.3036C19.9979 13.5502 19.6992 13.6408 19.4443 13.8096C19.1895 13.9784 18.9895 14.218 18.8691 14.499V14.499Z" stroke="black" stroke-width="1.89999" stroke-linecap="round" stroke-linejoin="round"/>
</g>
<defs>
<clipPath id="clip0_40_12384">
<rect width="22.7999" height="22.7999" fill="white" transform="translate(0.438965 0.249044)"/>
</clipPath>
</defs>
</svg>
