<svg width="39" height="39" viewBox="0 0 39 39" fill="none" xmlns="http://www.w3.org/2000/svg">
<g clip-path="url(#clip0_40_11537)">
<path d="M12.4358 14.9525H14.0192M14.0192 14.9525H26.6868M14.0192 14.9525V26.0367C14.0192 26.4566 14.1861 26.8594 14.483 27.1563C14.78 27.4533 15.1827 27.6201 15.6027 27.6201H23.5199C23.9399 27.6201 24.3427 27.4533 24.6396 27.1563C24.9366 26.8594 25.1034 26.4566 25.1034 26.0367V14.9525H14.0192ZM16.3944 14.9525V13.3691C16.3944 12.9491 16.5612 12.5464 16.8582 12.2494C17.1552 11.9524 17.5579 11.7856 17.9779 11.7856H21.1448C21.5647 11.7856 21.9675 11.9524 22.2644 12.2494C22.5614 12.5464 22.7282 12.9491 22.7282 13.3691V14.9525M17.9779 18.9111V23.6615M21.1448 18.9111V23.6615" stroke="#EA5455" stroke-width="1.58345" stroke-linecap="round" stroke-linejoin="round"/>
</g>
<defs>
<clipPath id="clip0_40_11537">
<rect width="19.0014" height="19.0014" fill="white" transform="translate(10.0605 10.2022)"/>
</clipPath>
</defs>
</svg>
