<svg width="39" height="39" viewBox="0 0 39 39" fill="none" xmlns="http://www.w3.org/2000/svg">
<path d="M23.3231 12.5773C23.5311 12.3694 23.7779 12.2044 24.0496 12.0919C24.3213 11.9794 24.6125 11.9214 24.9066 11.9214C25.2007 11.9214 25.4919 11.9794 25.7636 12.0919C26.0352 12.2044 26.2821 12.3694 26.49 12.5773C26.698 12.7853 26.8629 13.0321 26.9755 13.3038C27.088 13.5755 27.1459 13.8667 27.1459 14.1608C27.1459 14.4549 27.088 14.7461 26.9755 15.0177C26.8629 15.2894 26.698 15.5363 26.49 15.7442L15.8018 26.4325L11.4473 27.6201L12.6349 23.2656L23.3231 12.5773Z" stroke="black" stroke-width="1.58345" stroke-linecap="round" stroke-linejoin="round"/>
</svg>
