<svg width="39" height="40" viewBox="0 0 39 40" fill="none" xmlns="http://www.w3.org/2000/svg">
<rect x="0.835938" y="-9.15527e-05" width="37.9998" height="39.8998" rx="3.79998" fill="#0C3A30"/>
<path fill-rule="evenodd" clip-rule="evenodd" d="M22.686 16.1498C22.686 15.6252 23.1114 15.1998 23.636 15.1998H30.286C30.8107 15.1998 31.236 15.6252 31.236 16.1498C31.236 16.6745 30.8107 17.0998 30.286 17.0998H23.636C23.1114 17.0998 22.686 16.6745 22.686 16.1498Z" fill="white"/>
<path fill-rule="evenodd" clip-rule="evenodd" d="M22.686 23.7498C22.686 23.2251 23.1114 22.7998 23.636 22.7998H30.286C30.8107 22.7998 31.236 23.2251 31.236 23.7498C31.236 24.2745 30.8107 24.6998 30.286 24.6998H23.636C23.1114 24.6998 22.686 24.2745 22.686 23.7498Z" fill="white"/>
<path fill-rule="evenodd" clip-rule="evenodd" d="M12.7928 8.15636C13.1491 7.80005 13.6324 7.59987 14.1363 7.59987H29.3362C29.8401 7.59987 30.3234 7.80005 30.6797 8.15636C31.0361 8.51268 31.2362 8.99595 31.2362 9.49986V30.3998C31.2362 30.9037 31.0361 31.3869 30.6797 31.7433C30.3234 32.0996 29.8401 32.2997 29.3362 32.2997H14.1363C13.6324 32.2997 13.1491 32.0996 12.7928 31.7433C12.4365 31.3869 12.2363 30.9037 12.2363 30.3998V26.5998C12.2363 26.0751 12.6617 25.6498 13.1863 25.6498C13.711 25.6498 14.1363 26.0751 14.1363 26.5998V30.3998H29.3362V9.49986L14.1363 9.49986L14.1363 13.2998C14.1363 13.8245 13.711 14.2498 13.1863 14.2498C12.6617 14.2498 12.2363 13.8245 12.2363 13.2998V9.49986C12.2363 8.99595 12.4365 8.51268 12.7928 8.15636Z" fill="white"/>
<path fill-rule="evenodd" clip-rule="evenodd" d="M21.7356 25.6498C22.2603 25.6498 22.6856 26.0751 22.6856 26.5998V31.3498C22.6856 31.8744 22.2603 32.2997 21.7356 32.2997C21.211 32.2997 20.7856 31.8744 20.7856 31.3498V26.5998C20.7856 26.0751 21.211 25.6498 21.7356 25.6498Z" fill="white"/>
<path fill-rule="evenodd" clip-rule="evenodd" d="M21.7356 7.59987C22.2603 7.59987 22.6856 8.0252 22.6856 8.54986V13.2998C22.6856 13.8245 22.2603 14.2498 21.7356 14.2498C21.211 14.2498 20.7856 13.8245 20.7856 13.2998V8.54986C20.7856 8.0252 21.211 7.59987 21.7356 7.59987Z" fill="white"/>
<path fill-rule="evenodd" clip-rule="evenodd" d="M8.43604 14.2498C8.43604 13.2005 9.28669 12.3498 10.336 12.3498H22.686C23.7353 12.3498 24.586 13.2005 24.586 14.2498V25.6498C24.586 26.6991 23.7353 27.5498 22.686 27.5498H10.336C9.28669 27.5498 8.43604 26.6991 8.43604 25.6498V14.2498ZM22.686 14.2498H10.336V25.6498H22.686V14.2498Z" fill="white"/>
<path fill-rule="evenodd" clip-rule="evenodd" d="M13.8034 16.3398C14.2231 16.025 14.8186 16.1101 15.1334 16.5298L19.4084 22.2298C19.7232 22.6495 19.6381 23.245 19.2184 23.5598C18.7986 23.8746 18.2032 23.7895 17.8884 23.3698L13.6134 17.6698C13.2986 17.2501 13.3837 16.6546 13.8034 16.3398Z" fill="white"/>
<path fill-rule="evenodd" clip-rule="evenodd" d="M19.2184 16.3398C19.6381 16.6546 19.7232 17.2501 19.4084 17.6698L15.1334 23.3698C14.8186 23.7895 14.2231 23.8746 13.8034 23.5598C13.3837 23.245 13.2986 22.6495 13.6134 22.2298L17.8884 16.5298C18.2032 16.1101 18.7986 16.025 19.2184 16.3398Z" fill="white"/>
</svg>
