<svg width="41" height="40" viewBox="0 0 41 40" fill="none" xmlns="http://www.w3.org/2000/svg">
<rect x="0.535645" y="-9.15527e-05" width="39.8998" height="39.8998" rx="3.79998" fill="#FF9F43"/>
<path fill-rule="evenodd" clip-rule="evenodd" d="M20.4852 12.3498C21.0098 12.3498 21.4351 12.7752 21.4351 13.2998V15.1998C21.4351 15.7245 21.0098 16.1498 20.4852 16.1498C19.9605 16.1498 19.5352 15.7245 19.5352 15.1998V13.2998C19.5352 12.7752 19.9605 12.3498 20.4852 12.3498Z" fill="white"/>
<path fill-rule="evenodd" clip-rule="evenodd" d="M20.4852 23.7498C21.0098 23.7498 21.4351 24.1751 21.4351 24.6998V26.5998C21.4351 27.1244 21.0098 27.5498 20.4852 27.5498C19.9605 27.5498 19.5352 27.1244 19.5352 26.5998V24.6998C19.5352 24.1751 19.9605 23.7498 20.4852 23.7498Z" fill="white"/>
<path fill-rule="evenodd" clip-rule="evenodd" d="M20.4857 9.49986C14.7143 9.49986 10.0357 14.1785 10.0357 19.9498C10.0357 25.7212 14.7143 30.3998 20.4857 30.3998C26.257 30.3998 30.9356 25.7212 30.9356 19.9498C30.9356 14.1785 26.257 9.49986 20.4857 9.49986ZM8.13574 19.9498C8.13574 13.1291 13.665 7.59987 20.4857 7.59987C27.3064 7.59987 32.8356 13.1291 32.8356 19.9498C32.8356 26.7705 27.3064 32.2997 20.4857 32.2997C13.665 32.2997 8.13574 26.7705 8.13574 19.9498Z" fill="white"/>
<path fill-rule="evenodd" clip-rule="evenodd" d="M19.0603 16.1498C18.6824 16.1498 18.32 16.3 18.0527 16.5672C17.7855 16.8344 17.6353 17.1969 17.6353 17.5748C17.6353 17.9528 17.7855 18.3152 18.0527 18.5825C18.32 18.8497 18.6824 18.9998 19.0603 18.9998H21.9103C22.7922 18.9998 23.6379 19.3501 24.2614 19.9737C24.885 20.5972 25.2353 21.443 25.2353 22.3248C25.2353 23.2066 24.885 24.0524 24.2614 24.6759C23.6379 25.2995 22.7922 25.6498 21.9103 25.6498H17.6353C17.1107 25.6498 16.6853 25.2245 16.6853 24.6998C16.6853 24.1751 17.1107 23.7498 17.6353 23.7498H21.9103C22.2883 23.7498 22.6507 23.5997 22.9179 23.3324C23.1852 23.0652 23.3353 22.7027 23.3353 22.3248C23.3353 21.9469 23.1852 21.5844 22.9179 21.3172C22.6507 21.0499 22.2883 20.8998 21.9103 20.8998H19.0603C18.1785 20.8998 17.3328 20.5495 16.7092 19.9259C16.0857 19.3024 15.7354 18.4567 15.7354 17.5748C15.7354 16.693 16.0857 15.8473 16.7092 15.2237C17.3328 14.6002 18.1785 14.2498 19.0603 14.2498H23.3353C23.86 14.2498 24.2853 14.6752 24.2853 15.1998C24.2853 15.7245 23.86 16.1498 23.3353 16.1498H19.0603Z" fill="white"/>
</svg>
