<svg width="41" height="36" viewBox="0 0 41 36" fill="none" xmlns="http://www.w3.org/2000/svg">
<rect x="0.209229" y="0.402252" width="39.903" height="35.1526" rx="3.80028" fill="#FF9F43"/>
<path fill-rule="evenodd" clip-rule="evenodd" d="M19.2107 11.8031C19.2107 11.2784 19.636 10.853 20.1607 10.853H30.6115C31.1154 10.853 31.5988 11.0532 31.9551 11.4096C32.3115 11.7659 32.5116 12.2492 32.5116 12.7532V26.0542C32.5116 26.5581 32.3115 27.0414 31.9551 27.3978C31.5988 27.7541 31.1154 27.9543 30.6115 27.9543H9.70996C9.20601 27.9543 8.7227 27.7541 8.36635 27.3978C8.01001 27.0414 7.80981 26.5581 7.80981 26.0542V14.6533C7.80981 14.1286 8.23518 13.7032 8.75988 13.7032C9.28459 13.7032 9.70996 14.1286 9.70996 14.6533V26.0542H30.6115V12.7532H20.1607C19.636 12.7532 19.2107 12.3278 19.2107 11.8031Z" fill="white"/>
<path fill-rule="evenodd" clip-rule="evenodd" d="M8.36635 8.55935C8.7227 8.203 9.20601 8.00281 9.70996 8.00281H16.0437C16.452 8.00449 16.8491 8.13685 17.1768 8.3805L17.1795 8.38253L20.7304 11.0427C20.9698 11.2221 21.1108 11.5039 21.1108 11.8031C21.1108 12.1023 20.9698 12.384 20.7304 12.5635L17.1795 15.2236L17.1768 15.2257C16.8491 15.4693 16.452 15.6017 16.0437 15.6034L16.0398 14.6533V15.6034H8.75988C8.23518 15.6034 7.80981 15.178 7.80981 14.6533V9.90295C7.80981 9.399 8.01001 8.91569 8.36635 8.55935ZM16.0363 13.7032C16.0386 13.7031 16.0408 13.7024 16.0427 13.7011C16.0426 13.7012 16.0427 13.701 16.0427 13.7011L18.5761 11.8031L16.0429 9.90529C16.0428 9.90522 16.043 9.90535 16.0429 9.90529C16.0411 9.90398 16.0386 9.90303 16.0363 9.90295L9.70996 9.90295L9.70996 13.7032H16.0363Z" fill="white"/>
</svg>
