<?xml version="1.0" encoding="utf-8"?>
<!-- Generator: Adobe Illustrator 27.1.1, SVG Export Plug-In . SVG Version: 6.00 Build 0)  -->
<svg version="1.1" id="Layer_1" xmlns="http://www.w3.org/2000/svg" xmlns:xlink="http://www.w3.org/1999/xlink" x="0px" y="0px"
	 viewBox="0 0 51 51" style="enable-background:new 0 0 51 51;" xml:space="preserve">
<style type="text/css">
	.st0{fill:#FFDB1E;}
	.st1{fill:#186560;}
</style>
<g>
	<path class="st0" d="M31.3,10.4c-2.1,0-4,0.4-5.8,1.2c1.3,0.5,2.4,1.2,3.5,2l-9.2,12h11.6h3.6c0,6.3-3.9,11.7-9.3,14
		c1.8,0.7,3.7,1.2,5.8,1.2c8.4,0,15.1-6.8,15.1-15.1S39.6,10.4,31.3,10.4z"/>
	<path class="st1" d="M34.9,25.5h-3.6H19.7l9.2-12c-1.1-0.8-2.2-1.5-3.5-2c-1.8-0.7-3.7-1.2-5.8-1.2c-8.4,0-15.1,6.8-15.1,15.1
		s6.8,15.1,15.1,15.1c2.1,0,4-0.4,5.8-1.2C31,37.2,34.9,31.8,34.9,25.5z"/>
</g>
</svg>
