<svg width="24" height="24" viewBox="0 0 24 24" fill="none" xmlns="http://www.w3.org/2000/svg">
<path fill-rule="evenodd" clip-rule="evenodd" d="M3.25244 7.02928C3.25244 6.63575 3.57146 6.31673 3.96499 6.31673H19.6412C20.0347 6.31673 20.3537 6.63575 20.3537 7.02928C20.3537 7.42281 20.0347 7.74183 19.6412 7.74183H3.96499C3.57146 7.74183 3.25244 7.42281 3.25244 7.02928Z" fill="black"/>
<path fill-rule="evenodd" clip-rule="evenodd" d="M3.25244 10.592C3.25244 10.1985 3.57146 9.87949 3.96499 9.87949H19.6412C20.0347 9.87949 20.3537 10.1985 20.3537 10.592C20.3537 10.9856 20.0347 11.3046 19.6412 11.3046H3.96499C3.57146 11.3046 3.25244 10.9856 3.25244 10.592Z" fill="black"/>
<path fill-rule="evenodd" clip-rule="evenodd" d="M3.25244 14.1548C3.25244 13.7613 3.57146 13.4422 3.96499 13.4422H19.6412C20.0347 13.4422 20.3537 13.7613 20.3537 14.1548C20.3537 14.5483 20.0347 14.8674 19.6412 14.8674H3.96499C3.57146 14.8674 3.25244 14.5483 3.25244 14.1548Z" fill="black"/>
<path fill-rule="evenodd" clip-rule="evenodd" d="M3.25244 17.7176C3.25244 17.324 3.57146 17.005 3.96499 17.005H19.6412C20.0347 17.005 20.3537 17.324 20.3537 17.7176C20.3537 18.1111 20.0347 18.4301 19.6412 18.4301H3.96499C3.57146 18.4301 3.25244 18.1111 3.25244 17.7176Z" fill="black"/>
</svg>
